<?xml version="1.0" encoding="utf-8"?>
<!-- Generator: Adobe Illustrator 16.0.0, SVG Export Plug-In . SVG Version: 6.00 Build 0)  -->
<!DOCTYPE svg PUBLIC "-//W3C//DTD SVG 1.1//EN" "http://www.w3.org/Graphics/SVG/1.1/DTD/svg11.dtd">
<svg version="1.1" id="Layer_1" xmlns="http://www.w3.org/2000/svg" xmlns:xlink="http://www.w3.org/1999/xlink" x="0px" y="0px"
	 width="140px" height="20px" viewBox="11.28 2.002 140 20" enable-background="new 11.28 2.002 140 20" xml:space="preserve">
<g>
	<path fill="#FFFFFF" d="M20.219,20.013H13.28V4.17h6.166c1.072,0,1.998,0.129,2.776,0.384c0.78,0.257,1.364,0.606,1.757,1.042
		c0.709,0.817,1.065,1.739,1.065,2.769c0,1.237-0.401,2.158-1.202,2.763c-0.273,0.214-0.461,0.345-0.567,0.396
		c-0.105,0.052-0.293,0.141-0.566,0.261c0.983,0.213,1.763,0.653,2.348,1.326c0.58,0.673,0.873,1.511,0.873,2.508
		c0,1.101-0.379,2.074-1.132,2.923C23.919,19.526,22.393,20.013,20.219,20.013z M16.818,10.583h1.675
		c0.985,0,1.714-0.103,2.19-0.315c0.473-0.212,0.713-0.669,0.713-1.37c0-0.705-0.219-1.17-0.657-1.394
		c-0.439-0.229-1.181-0.341-2.222-0.341h-1.7V10.583z M16.818,17.021h2.424c1.011,0,1.774-0.124,2.278-0.373
		c0.506-0.247,0.758-0.741,0.758-1.474c0-0.733-0.266-1.213-0.801-1.45c-0.537-0.231-1.395-0.354-2.576-0.354h-2.083V17.021z"/>
	<path fill="#FFFFFF" d="M28.899,20.013V4.17h3.537v12.695h6.753v3.147H28.899z"/>
	<path fill="#FFFFFF" d="M45.626,15.923c0.589,0.734,1.381,1.097,2.38,1.097c0.997,0,1.786-0.363,2.368-1.097
		c0.584-0.732,0.872-1.734,0.872-3.004V4.17h3.537v8.861c0,2.3-0.631,4.062-1.902,5.296c-1.27,1.229-2.897,1.846-4.875,1.846
		c-1.979,0-3.608-0.622-4.883-1.859c-1.278-1.236-1.918-3-1.918-5.284V4.17h3.536v8.749C44.74,14.189,45.037,15.191,45.626,15.923z"
		/>
	<path fill="#FFFFFF" d="M69.881,4.17v3.15h-7.892v3.262h7.099v3.018h-7.099v3.284h8.139v3.129H58.457V4.17H69.881z"/>
	<path fill="#FFFFFF" d="M92.115,9.431c0,2.538-1.006,4.178-3.016,4.919l4.013,5.663h-4.355l-3.512-5.055h-2.448v5.055H79.26V4.17
		h6.009c2.464,0,4.217,0.417,5.272,1.246C91.591,6.25,92.115,7.586,92.115,9.431z M87.853,11.308
		c0.436-0.393,0.657-1.012,0.657-1.865c0-0.858-0.225-1.443-0.682-1.759c-0.452-0.316-1.245-0.477-2.378-0.477h-2.652v4.695h2.583
		C86.591,11.902,87.416,11.703,87.853,11.308z"/>
	<path fill="#FFFFFF" d="M95.74,4.17h3.537v15.843H95.74V4.17z"/>
	<path fill="#FFFFFF" d="M115.279,6.246c1.514,1.381,2.268,3.305,2.268,5.769c0,2.462-0.74,4.408-2.21,5.847
		c-1.469,1.435-3.72,2.151-6.749,2.151h-5.414V4.17h5.601C111.603,4.17,113.764,4.863,115.279,6.246z M112.686,15.663
		c0.865-0.817,1.305-2.002,1.305-3.562c0-1.553-0.439-2.751-1.305-3.587c-0.873-0.843-2.207-1.26-3.999-1.26h-1.975v9.63h2.247
		C110.566,16.884,111.813,16.481,112.686,15.663z"/>
	<path fill="#FFFFFF" d="M130.892,11.946h3.564v5.62c-1.578,1.755-3.747,2.633-6.525,2.633c-2.335,0-4.284-0.775-5.861-2.318
		c-1.578-1.536-2.369-3.484-2.369-5.835c0-2.346,0.809-4.311,2.414-5.88c1.604-1.569,3.552-2.361,5.827-2.361
		c2.272,0,4.248,0.75,5.923,2.25l-1.833,2.652c-0.716-0.622-1.367-1.052-1.962-1.283c-0.599-0.236-1.244-0.353-1.942-0.353
		c-1.346,0-2.473,0.457-3.396,1.376c-0.92,0.912-1.387,2.119-1.387,3.612c0,1.499,0.445,2.697,1.327,3.593
		c0.888,0.899,1.942,1.35,3.158,1.35c1.227,0,2.251-0.236,3.062-0.706V11.946z"/>
	<path fill="#FFFFFF" d="M149.033,4.17v3.15h-7.894v3.262h7.101v3.018h-7.101v3.284h8.141v3.129h-11.671V4.17H149.033z"/>
</g>
</svg>
