<?xml version="1.0" encoding="utf-8"?>
<!-- Generator: Adobe Illustrator 16.0.0, SVG Export Plug-In . SVG Version: 6.00 Build 0)  -->
<!DOCTYPE svg PUBLIC "-//W3C//DTD SVG 1.1//EN" "http://www.w3.org/Graphics/SVG/1.1/DTD/svg11.dtd">
<svg version="1.1" id="Layer_1" xmlns="http://www.w3.org/2000/svg" xmlns:xlink="http://www.w3.org/1999/xlink" x="0px" y="0px"
	 width="255px" height="280px" viewBox="0 0 255 280" enable-background="new 0 0 255 280" xml:space="preserve">
<path fill="#FFFFFF" d="M31.437,42.565H18.612V248.98v12.824h12.824h206.415V248.98H31.437V42.565z M224.268,20.21H17.851v12.825
	h206.415V239.45h12.825V33.036V20.21H224.268z"/>
<g>
	<path fill="#FFFFFF" d="M104.297,139.075c10.165,2.836,15.25,8.112,15.25,15.837v34.753c0,13.778-7.019,20.665-21.05,20.665H61.24
		V71.687h31.659c16.482,0,24.715,8.372,24.715,25.102v26.648c0,7.985-4.438,12.874-13.316,14.67L104.297,139.075L104.297,139.075z
		 M79.768,130.196h8.691c7.088,0,10.626-3.35,10.626-10.046V98.529c0-6.693-2.764-10.038-8.305-10.038H79.768V130.196z
		 M79.768,193.522h13.904c4.897,0,7.347-1.988,7.347-5.985v-30.7c0-6.565-3.666-9.845-11.013-9.845H79.768V193.522z"/>
	<path fill="#FFFFFF" d="M134.997,71.687h36.298c14.161,0,21.235,7.918,21.235,23.756v34.173c0,12.101-3.665,19.763-10.996,22.975
		l12.93,57.736h-17.569l-12.171-55.996h-11.198v55.996h-18.528V71.687L134.997,71.687z M153.524,138.493h12.172
		c5.524,0,8.305-3.342,8.305-10.037V98.529c0-6.693-2.78-10.038-8.305-10.038h-12.172V138.493z"/>
</g>
</svg>
