<?xml version="1.0" encoding="utf-8"?>
<!-- Generator: Adobe Illustrator 16.0.0, SVG Export Plug-In . SVG Version: 6.00 Build 0)  -->
<!DOCTYPE svg PUBLIC "-//W3C//DTD SVG 1.1//EN" "http://www.w3.org/Graphics/SVG/1.1/DTD/svg11.dtd">
<svg version="1.1" id="Layer_1" xmlns="http://www.w3.org/2000/svg" xmlns:xlink="http://www.w3.org/1999/xlink" x="0px" y="0px"
	 width="140px" height="20px" viewBox="0 0 140 20" enable-background="new 0 0 140 20" xml:space="preserve">
<g>
	<path fill="#1C1E21" d="M9.219,18.014H2.28V2.17h6.166c1.072,0,1.998,0.129,2.776,0.384c0.78,0.257,1.364,0.606,1.757,1.042
		c0.709,0.817,1.065,1.739,1.065,2.769c0,1.237-0.401,2.158-1.202,2.763c-0.273,0.214-0.461,0.345-0.567,0.396
		c-0.105,0.053-0.293,0.142-0.566,0.262c0.983,0.213,1.763,0.652,2.348,1.326c0.58,0.673,0.873,1.511,0.873,2.508
		c0,1.101-0.379,2.074-1.132,2.923C12.919,17.525,11.393,18.014,9.219,18.014z M5.818,8.583h1.675c0.985,0,1.714-0.103,2.19-0.315
		c0.473-0.212,0.713-0.669,0.713-1.37c0-0.705-0.219-1.17-0.657-1.394C9.3,5.275,8.558,5.163,7.517,5.163h-1.7L5.818,8.583
		L5.818,8.583z M5.818,15.021h2.424c1.011,0,1.774-0.125,2.278-0.373c0.506-0.248,0.758-0.741,0.758-1.475
		c0-0.732-0.266-1.213-0.801-1.449C9.94,11.493,9.082,11.37,7.901,11.37H5.818V15.021z"/>
	<path fill="#1C1E21" d="M17.899,18.014V2.17h3.537v12.695h6.753v3.146h-10.29V18.014z"/>
	<path fill="#1C1E21" d="M34.626,13.923c0.589,0.734,1.381,1.097,2.38,1.097c0.997,0,1.786-0.362,2.368-1.097
		c0.584-0.731,0.872-1.733,0.872-3.004V2.17h3.537v8.861c0,2.3-0.631,4.062-1.902,5.296c-1.27,1.229-2.897,1.846-4.875,1.846
		c-1.979,0-3.608-0.622-4.883-1.858c-1.278-1.236-1.918-3-1.918-5.284V2.17h3.536v8.749C33.74,12.189,34.037,13.191,34.626,13.923z"
		/>
	<path fill="#1C1E21" d="M58.881,2.17v3.15h-7.892v3.262h7.099V11.6h-7.099v3.284h8.139v3.13H47.457V2.17H58.881z"/>
	<path fill="#1C1E21" d="M81.115,7.431c0,2.538-1.006,4.178-3.016,4.918l4.012,5.664h-4.354l-3.512-5.056h-2.448v5.056H68.26V2.17
		h6.01c2.463,0,4.217,0.417,5.271,1.246C80.591,4.25,81.115,5.586,81.115,7.431z M76.854,9.309c0.436-0.394,0.656-1.013,0.656-1.866
		c0-0.858-0.225-1.443-0.682-1.759c-0.452-0.316-1.245-0.477-2.378-0.477h-2.652v4.695h2.583
		C75.591,9.902,76.416,9.703,76.854,9.309z"/>
	<path fill="#1C1E21" d="M84.74,2.17h3.537v15.844H84.74V2.17z"/>
	<path fill="#1C1E21" d="M104.279,4.246c1.514,1.381,2.268,3.305,2.268,5.77c0,2.461-0.74,4.407-2.21,5.846
		c-1.469,1.436-3.72,2.152-6.749,2.152h-5.414V2.17h5.602C100.604,2.17,102.764,2.863,104.279,4.246z M101.686,13.663
		c0.865-0.817,1.306-2.002,1.306-3.562c0-1.554-0.439-2.751-1.306-3.587c-0.873-0.843-2.207-1.26-3.998-1.26h-1.976v9.63h2.247
		C99.566,14.884,100.813,14.48,101.686,13.663z"/>
	<path fill="#1C1E21" d="M119.893,9.945h3.563v5.621c-1.578,1.754-3.747,2.633-6.524,2.633c-2.336,0-4.285-0.775-5.861-2.318
		c-1.578-1.536-2.369-3.484-2.369-5.835c0-2.346,0.809-4.311,2.414-5.88c1.604-1.569,3.552-2.361,5.826-2.361
		c2.272,0,4.248,0.75,5.924,2.25l-1.833,2.652c-0.716-0.622-1.367-1.052-1.962-1.283c-0.6-0.236-1.244-0.353-1.942-0.353
		c-1.346,0-2.474,0.457-3.396,1.376c-0.92,0.912-1.387,2.119-1.387,3.611c0,1.5,0.444,2.697,1.326,3.594
		c0.889,0.898,1.941,1.35,3.158,1.35c1.227,0,2.251-0.236,3.063-0.706V9.945z"/>
	<path fill="#1C1E21" d="M138.033,2.17v3.15h-7.895v3.262h7.102V11.6h-7.102v3.284h8.141v3.13h-11.67V2.17H138.033z"/>
</g>
</svg>
