<?xml version="1.0" encoding="utf-8"?>
<!-- Generator: Adobe Illustrator 16.0.0, SVG Export Plug-In . SVG Version: 6.00 Build 0)  -->
<!DOCTYPE svg PUBLIC "-//W3C//DTD SVG 1.1//EN" "http://www.w3.org/Graphics/SVG/1.1/DTD/svg11.dtd">
<svg version="1.1" id="Layer_1" xmlns="http://www.w3.org/2000/svg" xmlns:xlink="http://www.w3.org/1999/xlink" x="0px" y="0px"
	 width="100px" height="100px" viewBox="0 0 100 100" enable-background="new 0 0 100 100" xml:space="preserve">
<path fill="#62C3A6" d="M82.786,71.093c5.924-8.156,8.318-18.129,6.74-28.085c-1.578-9.958-6.938-18.703-15.097-24.627
	c-6.764-4.918-13.813-7.208-22.177-7.208h-1.126v38.313l30.996,22.521L82.786,71.093z M53.383,48.337V13.439
	c7.372,0.2,13.666,2.362,19.722,6.766c7.67,5.569,12.714,13.793,14.195,23.156c1.423,8.988-0.595,17.993-5.689,25.486L53.383,48.337
	z M47.739,88.908c12.582,0,23.139-5.38,30.532-15.557l0.666-0.91L48.866,50.595V13.426h-1.127C26.929,13.426,10,30.356,10,51.169
	C10,71.978,26.929,88.908,47.739,88.908z M46.61,15.697v36.046l29.163,21.188c-6.913,8.983-16.582,13.724-28.034,13.724
	c-19.566,0-35.482-15.918-35.482-35.485C12.257,31.977,27.566,16.295,46.61,15.697z"/>
</svg>
