<?xml version="1.0" encoding="utf-8"?>
<!-- Generator: Adobe Illustrator 16.0.0, SVG Export Plug-In . SVG Version: 6.00 Build 0)  -->
<!DOCTYPE svg PUBLIC "-//W3C//DTD SVG 1.1//EN" "http://www.w3.org/Graphics/SVG/1.1/DTD/svg11.dtd">
<svg version="1.1" id="Layer_1" xmlns="http://www.w3.org/2000/svg" xmlns:xlink="http://www.w3.org/1999/xlink" x="0px" y="0px"
	 width="100px" height="100px" viewBox="0 0 100 100" enable-background="new 0 0 100 100" xml:space="preserve">
<path fill="#62C3A6" d="M18.192,63.592c-5.135,5.146-7.18,19.403-7.82,25.294L10.25,90l1.115-0.12
	c5.887-0.633,20.137-2.663,25.29-7.82c4.718-4.721,8.741-11.95,1.117-19.581C31.798,56.503,24.869,56.919,18.192,63.592z
	 M35.381,80.784c-4.578,4.583-18.198,6.591-23.088,7.177c0.592-4.894,2.617-18.528,7.174-23.096c3.193-3.191,6.35-4.809,9.386-4.809
	h0.017c2.609,0,5.177,1.242,7.63,3.695C43.069,70.331,39.517,76.646,35.381,80.784z M86.17,10c-0.642,0-1.324,0.275-2.146,0.862
	c-4.796,3.374-9.566,6.731-14.333,10.111c-13.142,9.351-25.117,19.835-35.595,31.163c-0.362,0.394-0.714,0.81-1.06,1.233
	l-0.652,0.801l0.883,0.539c6.214,3.781,7.406,4.976,11.593,11.601l0.532,0.837l0.783-0.607c0.24-0.186,0.466-0.375,0.702-0.573
	c8.313-7.258,15.673-14.979,21.872-22.949c4.7-6.039,9.267-12.358,13.708-18.501l0.471-0.649c1.969-2.738,3.944-5.48,5.941-8.207
	c1.252-1.716,1.178-2.9-0.273-4.371C87.451,10.146,86.703,10,86.17,10z M87.414,14.596c-1.998,2.73-3.978,5.478-5.949,8.217
	l-0.468,0.647c-4.403,6.093-8.958,12.394-13.669,18.45c-6.094,7.835-13.326,15.429-21.492,22.572
	c-3.724-5.819-5.298-7.4-10.735-10.765c0.105-0.121,0.214-0.242,0.322-0.359c10.39-11.233,22.271-21.636,35.313-30.916
	c4.767-3.377,9.533-6.733,14.331-10.109c0.67-0.478,0.994-0.53,1.104-0.53h0.008c0.331,0,0.856,0.477,1.138,0.758
	C88.133,13.387,88.143,13.596,87.414,14.596z"/>
</svg>
