<?xml version="1.0" encoding="utf-8"?>
<!-- Generator: Adobe Illustrator 16.0.0, SVG Export Plug-In . SVG Version: 6.00 Build 0)  -->
<!DOCTYPE svg PUBLIC "-//W3C//DTD SVG 1.1//EN" "http://www.w3.org/Graphics/SVG/1.1/DTD/svg11.dtd">
<svg version="1.1" id="Layer_1" xmlns="http://www.w3.org/2000/svg" xmlns:xlink="http://www.w3.org/1999/xlink" x="0px" y="0px"
	 width="100px" height="100px" viewBox="0 0 100 100" enable-background="new 0 0 100 100" xml:space="preserve">
<path fill="#62C3A6" d="M89.615,50.73L63.867,76.836c-0.255,0.258-0.596,0.399-0.957,0.399c-0.354,0-0.69-0.137-0.943-0.387
	c-0.527-0.519-0.531-1.37-0.012-1.896l24.807-25.154L61.967,25.227c-0.256-0.253-0.396-0.588-0.398-0.947
	c-0.003-0.358,0.135-0.697,0.387-0.951c0.503-0.508,1.388-0.517,1.899-0.007l25.747,25.513
	C90.127,49.354,90.133,50.204,89.615,50.73z M38.038,23.317c-0.511-0.501-1.395-0.498-1.899,0.013L10.385,49.439
	c-0.518,0.526-0.514,1.377,0.012,1.896l25.754,25.512c0.254,0.25,0.588,0.389,0.943,0.389c0.36,0,0.701-0.142,0.955-0.396
	c0.52-0.526,0.516-1.377-0.011-1.898L13.237,50.372l24.814-25.157C38.569,24.689,38.565,23.837,38.038,23.317z M55.069,20.814
	c-0.745-0.146-1.441,0.349-1.577,1.06l-10.89,55.905c-0.14,0.728,0.336,1.434,1.061,1.574c0.088,0.018,0.175,0.025,0.261,0.025
	c0.639,0,1.193-0.457,1.317-1.085L56.13,22.387C56.271,21.662,55.795,20.956,55.069,20.814z"/>
</svg>
