<?xml version="1.0" encoding="utf-8"?>
<!-- Generator: Adobe Illustrator 16.0.0, SVG Export Plug-In . SVG Version: 6.00 Build 0)  -->
<!DOCTYPE svg PUBLIC "-//W3C//DTD SVG 1.1//EN" "http://www.w3.org/Graphics/SVG/1.1/DTD/svg11.dtd">
<svg version="1.1" id="Layer_1" xmlns="http://www.w3.org/2000/svg" xmlns:xlink="http://www.w3.org/1999/xlink" x="0px" y="0px"
	 width="120px" height="120px" viewBox="0 0 120 120" enable-background="new 0 0 120 120" xml:space="preserve">
<g>
	<g>
		<path fill="#ADA9D2" d="M108.629,72.209c-4.36,17.579-17.937,31.457-35.43,36.221c-0.651,0.176-1.32-0.207-1.497-0.856
			s0.206-1.319,0.856-1.496c16.641-4.53,29.556-17.733,33.704-34.455c6.313-25.452-9.256-51.294-34.706-57.607
			c-12.329-3.059-25.111-1.133-35.992,5.422c-10.88,6.555-18.557,16.956-21.615,29.284c-6.313,25.451,9.256,51.293,34.707,57.607
			c0.653,0.162,1.052,0.824,0.89,1.478c-0.138,0.555-0.635,0.925-1.182,0.925c-0.097,0-0.196-0.011-0.295-0.036
			C21.313,102.058,4.945,74.89,11.582,48.133c3.215-12.961,11.286-23.894,22.724-30.785c11.438-6.892,24.876-8.917,37.837-5.701
			C98.898,18.285,115.267,45.452,108.629,72.209z M60.105,106.385c-1.078,0-1.951,0.874-1.951,1.951s0.874,1.95,1.951,1.95
			c1.077,0,1.951-0.873,1.951-1.95S61.183,106.385,60.105,106.385z"/>
	</g>
	<g>
		<path fill="#CDD1D2" d="M67.991,84.816c0,4.355-3.531,5.889-7.887,5.889l0,0c-4.354,0-7.886-1.533-7.886-5.889V76.78
			c0-4.355,15.772-4.355,15.772,0V84.816z"/>
		<path fill="#ADA9D2" d="M78.471,47.473c0-9.796-8.674-17.737-18.472-17.737c-9.797,0-18.471,7.941-18.471,17.737
			c0,0.522,0.029,1.04,0.073,1.551c-0.003,0.053-0.013,0.107-0.013,0.161c0,8.44,7.76,14.646,9.661,19.818
			c0.324,0.889,0,5.992,0,5.992h8.691h0.119h8.692c0,0-0.326-5.104,0-5.992c1.899-5.173,9.661-11.378,9.661-19.818
			c0-0.055-0.011-0.11-0.014-0.166C78.441,48.508,78.471,47.993,78.471,47.473z"/>
		<path fill="#E3E5E5" d="M70.979,74.554c0,0.918-0.743,1.663-1.662,1.663H50.682c-0.919,0-1.664-0.745-1.664-1.663l0,0
			c0-0.919,0.745-1.665,1.664-1.665h18.636C70.236,72.889,70.979,73.635,70.979,74.554L70.979,74.554z"/>
		<path fill="#E3E5E5" d="M70.979,79.878c0,0.919-0.743,1.663-1.662,1.663H50.682c-0.919,0-1.664-0.744-1.664-1.663l0,0
			c0-0.92,0.745-1.664,1.664-1.664h18.636C70.236,78.214,70.979,78.958,70.979,79.878L70.979,79.878z"/>
		<path fill="#E3E5E5" d="M70.979,85.203c0,0.919-0.743,1.664-1.662,1.664H50.682c-0.919,0-1.664-0.745-1.664-1.664l0,0
			c0-0.919,0.745-1.665,1.664-1.665h18.636C70.236,83.538,70.979,84.284,70.979,85.203L70.979,85.203z"/>
		<path fill="#E3E5E5" d="M65.849,44.705c-2.981,0-5.401,2.424-5.401,5.405v4.242h-0.896V50.11c0-2.981-2.419-5.405-5.4-5.405
			c-2.981,0-5.405,2.424-5.405,5.405c0,2.979,2.424,5.402,5.405,5.402h4.245v18.458h1.155V55.512h0.896v18.458h1.153V55.512h4.248
			c2.981,0,5.403-2.423,5.403-5.402C71.252,47.129,68.83,44.705,65.849,44.705z M65.849,54.353h-4.248V50.11
			c0-2.344,1.906-4.253,4.248-4.253c2.337,0,4.241,1.909,4.241,4.253C70.09,52.449,68.186,54.353,65.849,54.353z M54.151,45.857
			c2.343,0,4.245,1.909,4.245,4.253v4.242h-4.245c-2.339,0-4.245-1.904-4.245-4.242C49.907,47.766,51.812,45.857,54.151,45.857z"/>
	</g>
</g>
</svg>
