<?xml version="1.0" encoding="utf-8"?>
<!-- Generator: Adobe Illustrator 16.0.0, SVG Export Plug-In . SVG Version: 6.00 Build 0)  -->
<!DOCTYPE svg PUBLIC "-//W3C//DTD SVG 1.1//EN" "http://www.w3.org/Graphics/SVG/1.1/DTD/svg11.dtd">
<svg version="1.1" id="Layer_1" xmlns="http://www.w3.org/2000/svg" xmlns:xlink="http://www.w3.org/1999/xlink" x="0px" y="0px"
	 width="250px" height="250px" viewBox="0 0 250 250" enable-background="new 0 0 250 250" xml:space="preserve">
<g>
	<path fill="none" d="M124.474,149.215c-1.062,0-1.896,0.34-2.627,1.069c-0.729,0.723-1.066,1.542-1.066,2.583
		c0,1.225,0.321,2.072,1.01,2.67c1.541,1.335,3.96,1.337,5.45,0.002c0.694-0.613,1.016-1.461,1.016-2.67
		c0-1.027-0.345-1.846-1.085-2.57C126.412,149.561,125.555,149.215,124.474,149.215z"/>
	<path fill="none" d="M124.819,97.287c-1.268,0-2.192,0.358-2.911,1.127c-0.76,0.812-1.129,2.016-1.129,3.681
		c0,1.682,0.128,4.514,0.381,8.417l1.367,20.46c0.274,2.826,0.714,4.262,1.034,4.961c0.127,0.273,0.171,0.368,0.741,0.368
		c0.499,0,0.629-0.11,0.816-0.487c0.491-1.013,0.841-2.668,1.007-4.789l1.841-21.088c0.192-1.856,0.289-3.699,0.289-5.491
		c0-2.719-0.333-4.845-0.962-6.147C127.135,97.974,126.798,97.287,124.819,97.287z"/>
	<path fill="none" d="M178.872,120.569c-1.817-2.472-3.536-4.806-4.136-7.021c-0.594-2.241-0.26-5.222,0.063-8.104
		c0.28-2.516,0.698-6.283,0.013-7.481c-0.693-1.197-4.269-2.759-6.401-3.692c-2.828-1.236-5.499-2.404-7.126-4.031
		c-1.629-1.627-2.75-4.257-3.938-7.041c-1.006-2.338-2.5-5.824-3.671-6.42c-0.129-0.066-0.67-0.278-2.317-0.278
		c-1.217,0-2.719,0.106-4.724,0.334c-1.502,0.172-3.446,0.37-5.178,0.37c-1.562,0-2.767-0.157-3.685-0.481
		c-1.938-0.687-4.049-2.214-6.282-3.831c-2.188-1.588-5.456-3.96-6.971-3.96c-1.4,0-4.435,2.244-6.442,3.729
		c-2.476,1.817-4.811,3.531-7.015,4.123c-0.785,0.21-1.75,0.312-2.949,0.312c-1.657,0-3.547-0.194-5.188-0.376
		c-1.994-0.225-3.577-0.333-4.841-0.333c-1.933,0-2.506,0.274-2.602,0.329c-1.195,0.689-2.702,4.132-3.699,6.41
		c-1.18,2.708-2.382,5.47-4.021,7.114c-1.637,1.633-4.265,2.778-7.046,3.99c-2.32,1.019-5.801,2.547-6.484,3.734
		c-0.697,1.21-0.277,4.962,0.001,7.445c0.343,3.105,0.657,5.949,0.069,8.138c-0.597,2.226-2.309,4.551-4.121,7.012
		c-1.49,2.023-3.73,5.066-3.73,6.443c0,1.506,2.359,4.763,3.92,6.916c1.644,2.271,3.185,4.401,3.868,6.332
		c0.841,2.381,0.465,5.479,0.066,8.758c-0.284,2.356-0.713,5.919-0.073,7.026c0.688,1.197,4.132,2.705,6.412,3.701
		c2.836,1.242,5.501,2.408,7.12,4.029c1.633,1.639,2.817,4.299,4.071,7.114c1.026,2.302,2.545,5.705,3.745,6.461
		c0.169,0.108,0.85,0.447,2.808,0.447c1.616,0,3.585-0.224,5.167-0.401l0.23-0.021c2.555-0.276,5.274-0.514,7.059-0.194
		c2.481,0.442,4.977,2.317,7.619,4.304l-0.499,0.875l0.6-0.8c1.872,1.402,4.701,3.521,5.961,3.521c1.383,0,4.421-2.236,6.433-3.719
		c2.471-1.816,4.802-3.535,7.021-4.136c0.791-0.206,1.752-0.305,2.941-0.305c1.682,0,3.661,0.202,5.199,0.377l0.341,0.038
		c1.58,0.17,3.215,0.346,4.573,0.346c1.68,0,2.326-0.268,2.527-0.384c1.199-0.694,2.711-4.151,3.711-6.438
		c1.224-2.805,2.377-5.457,4.018-7.092c1.623-1.619,4.254-2.746,7.038-3.941c2.313-0.996,5.813-2.502,6.438-3.688
		c0.662-1.265,0.271-4.984,0.01-7.447c-0.324-3.121-0.625-6.002-0.032-8.223c0.59-2.191,2.267-4.482,4.043-6.91
		c1.543-2.094,3.801-5.156,3.801-6.545C182.589,125.616,180.352,122.579,178.872,120.569z M130.85,159.602
		c-1.787,1.588-3.904,2.396-6.287,2.396c-2.399,0-4.531-0.792-6.335-2.354c-1.91-1.666-2.877-3.944-2.877-6.773
		c0-2.505,0.893-4.668,2.654-6.432c1.756-1.762,3.933-2.654,6.469-2.654c2.514,0,4.701,0.885,6.497,2.629
		c1.805,1.768,2.717,3.938,2.717,6.459C133.688,155.67,132.73,157.936,130.85,159.602z M133.375,110.449l-1.832,21.025
		c-0.229,2.855-0.738,5.06-1.553,6.729c-1.112,2.277-3.133,3.533-5.688,3.533c-2.606,0-4.62-1.25-5.668-3.519
		c-0.735-1.606-1.231-3.829-1.519-6.801l-1.373-20.552c-0.261-4.028-0.393-6.979-0.393-8.771c0-3.058,0.87-5.543,2.585-7.387
		c1.773-1.893,4.088-2.852,6.884-2.852c4.678,0,6.616,2.552,7.354,4.073c1.02,2.083,1.514,4.871,1.514,8.52
		C133.688,106.448,133.582,108.467,133.375,110.449z"/>
	<path fill="#4AA8D3" d="M124.819,91.854c-2.796,0-5.11,0.959-6.884,2.852c-1.715,1.844-2.585,4.33-2.585,7.387
		c0,1.793,0.132,4.745,0.393,8.772l1.373,20.552c0.287,2.97,0.783,5.192,1.519,6.801c1.048,2.269,3.062,3.519,5.668,3.519
		c2.554,0,4.575-1.256,5.688-3.533c0.813-1.669,1.323-3.871,1.553-6.729l1.832-21.026c0.207-1.981,0.312-4,0.312-6.002
		c0-3.649-0.494-6.436-1.514-8.52C131.436,94.406,129.497,91.854,124.819,91.854z M127.967,109.938l-1.841,21.089
		c-0.166,2.119-0.515,3.777-1.007,4.787c-0.188,0.379-0.317,0.487-0.816,0.487c-0.57,0-0.614-0.094-0.741-0.366
		c-0.32-0.701-0.76-2.136-1.034-4.963l-1.367-20.459c-0.253-3.904-0.381-6.736-0.381-8.417c0-1.665,0.369-2.869,1.129-3.681
		c0.719-0.769,1.644-1.127,2.911-1.127c1.979,0,2.315,0.687,2.475,1.012c0.629,1.302,0.962,3.428,0.962,6.147
		C128.256,106.239,128.159,108.081,127.967,109.938z"/>
	<path fill="#4AA8D3" d="M183.257,136.65c2.347-3.189,4.772-6.487,4.772-9.65c0-3.167-2.441-6.485-4.805-9.696
		c-1.291-1.751-2.898-3.93-3.229-5.168c-0.336-1.241-0.04-3.85,0.222-6.155c0.436-3.928,0.887-7.989-0.695-10.733
		c-1.58-2.734-5.332-4.379-8.978-5.978c-2.114-0.925-4.511-1.974-5.417-2.877c-0.861-0.862-1.878-3.234-2.781-5.344
		c-1.604-3.748-3.266-7.623-6.191-9.108c-1.229-0.626-2.74-0.918-4.758-0.918c-1.727,0-3.655,0.222-5.354,0.417
		c-1.617,0.178-3.299,0.342-4.642,0.342c-1.115,0-1.612-0.117-1.81-0.186c-1.228-0.435-3.194-1.866-4.969-3.156
		c-3.354-2.428-6.826-4.939-10.093-4.939c-3.158,0-6.462,2.429-9.732,4.833c-1.836,1.35-3.917,2.879-5.135,3.201
		c-0.16,0.043-0.563,0.114-1.465,0.114c-1.471,0-3.362-0.182-4.697-0.336l-0.201-0.022c-1.767-0.191-3.593-0.388-5.286-0.388
		c-2.263,0-3.925,0.35-5.229,1.102c-2.746,1.581-4.392,5.336-6.003,9.012c-0.918,2.102-1.959,4.485-2.859,5.381
		c-0.895,0.899-3.366,1.983-5.353,2.854l0.401,0.916l-0.5-0.873c-3.617,1.583-7.358,3.22-8.936,5.957
		c-1.577,2.732-1.126,6.806-0.682,10.802c0.252,2.281,0.537,4.867,0.212,6.09c-0.334,1.248-1.952,3.437-3.253,5.196
		c-2.351,3.188-4.781,6.484-4.781,9.665c0,3.274,2.528,6.763,4.979,10.144l0.062,0.086c1.358,1.882,2.641,3.658,3.056,4.834
		c0.411,1.166,0.082,3.893-0.21,6.313c-0.456,3.786-0.927,7.7,0.614,10.372c1.596,2.755,5.351,4.396,9.007,5.992
		c1.993,0.872,4.475,1.956,5.388,2.873c0.937,0.925,2.009,3.346,2.965,5.503c1.57,3.528,3.194,7.181,5.791,8.819
		c1.384,0.877,3.198,1.285,5.709,1.285c1.957,0,4.155-0.25,5.755-0.433l0.371-0.039c1.976-0.215,4.362-0.415,5.363-0.235
		c1.229,0.228,3.52,1.942,5.36,3.322c3.048,2.29,6.199,4.659,9.289,4.659c3.17,0,6.474-2.435,9.712-4.817
		c1.843-1.354,3.931-2.892,5.149-3.217c0.158-0.043,0.561-0.113,1.463-0.113c1.446,0,3.336,0.181,4.682,0.332l0.126,0.012
		c1.7,0.188,3.626,0.404,5.377,0.404c2.257,0,3.922-0.354,5.241-1.108c2.742-1.578,4.388-5.345,5.99-9.017
		c0.922-2.1,1.969-4.479,2.854-5.365c0.893-0.889,3.367-1.953,5.354-2.812c3.727-1.596,7.578-3.245,9.097-6.147
		c1.427-2.711,1.01-6.696,0.604-10.577c-0.234-2.205-0.523-4.949-0.185-6.214C180.322,140.633,181.882,138.518,183.257,136.65z
		 M178.787,133.547c-1.775,2.426-3.453,4.717-4.043,6.91c-0.594,2.221-0.292,5.1,0.033,8.221c0.26,2.463,0.652,6.187-0.01,7.449
		c-0.625,1.188-4.123,2.693-6.438,3.689c-2.784,1.194-5.415,2.322-7.038,3.939c-1.639,1.637-2.794,4.287-4.018,7.094
		c-1,2.287-2.512,5.742-3.709,6.438c-0.201,0.115-0.852,0.384-2.529,0.384c-1.357,0-2.993-0.176-4.573-0.346l-0.341-0.038
		c-1.538-0.176-3.52-0.377-5.199-0.377c-1.191,0-2.15,0.099-2.943,0.305c-2.217,0.6-4.551,2.316-7.02,4.135
		c-2.012,1.481-5.05,3.721-6.433,3.721c-1.26,0-4.089-2.118-5.961-3.521l-0.6,0.8l0.499-0.875c-2.643-1.984-5.138-3.859-7.619-4.304
		c-1.784-0.317-4.504-0.082-7.059,0.192l-0.23,0.023c-1.582,0.18-3.551,0.401-5.167,0.401c-1.958,0-2.639-0.339-2.808-0.447
		c-1.2-0.756-2.719-4.159-3.745-6.461c-1.254-2.815-2.438-5.478-4.071-7.114c-1.619-1.621-4.284-2.787-7.12-4.029
		c-2.28-0.998-5.725-2.506-6.412-3.701c-0.64-1.108-0.211-4.672,0.073-7.026c0.398-3.278,0.774-6.377-0.066-8.758
		c-0.684-1.933-2.225-4.062-3.868-6.332c-1.561-2.153-3.92-5.41-3.92-6.916c0-1.377,2.24-4.42,3.73-6.443
		c1.813-2.461,3.524-4.786,4.121-7.012c0.588-2.189,0.273-5.033-0.069-8.138c-0.278-2.483-0.698-6.235-0.001-7.445
		c0.684-1.188,4.164-2.715,6.484-3.734c2.781-1.212,5.409-2.357,7.046-3.99c1.64-1.644,2.842-4.406,4.021-7.114
		c0.997-2.278,2.504-5.721,3.699-6.41c0.096-0.055,0.669-0.329,2.602-0.329c1.264,0,2.847,0.109,4.841,0.333
		c1.642,0.182,3.531,0.376,5.188,0.376c1.199,0,2.164-0.102,2.949-0.312c2.204-0.591,4.539-2.306,7.015-4.123
		c2.008-1.485,5.042-3.729,6.442-3.729c1.515,0,4.783,2.372,6.971,3.96c2.233,1.617,4.345,3.144,6.282,3.831
		c0.92,0.324,2.125,0.481,3.685,0.481c1.729,0,3.676-0.198,5.177-0.37c2.006-0.228,3.506-0.334,4.725-0.334
		c1.647,0,2.188,0.212,2.318,0.278c1.168,0.596,2.664,4.082,3.668,6.42c1.188,2.784,2.312,5.414,3.938,7.041
		c1.627,1.627,4.298,2.795,7.126,4.031c2.135,0.933,5.708,2.495,6.4,3.692c0.688,1.198,0.271,4.965-0.012,7.481
		c-0.322,2.882-0.658,5.863-0.064,8.104c0.601,2.215,2.317,4.549,4.137,7.021c1.479,2.009,3.716,5.045,3.716,6.433
		C182.587,128.391,180.33,131.453,178.787,133.547z"/>
	<path fill="#4AA8D3" d="M124.474,143.781c-2.536,0-4.713,0.895-6.469,2.656c-1.762,1.762-2.654,3.924-2.654,6.43
		c0,2.83,0.967,5.107,2.877,6.775c1.804,1.561,3.936,2.353,6.335,2.353c2.382,0,4.5-0.806,6.287-2.394
		c1.883-1.666,2.838-3.934,2.838-6.732c0-2.521-0.912-4.693-2.717-6.459C129.175,144.666,126.988,143.781,124.474,143.781z
		 M127.24,155.539c-1.49,1.335-3.909,1.333-5.45-0.002c-0.688-0.598-1.01-1.445-1.01-2.67c0-1.041,0.338-1.86,1.066-2.583
		c0.73-0.729,1.565-1.069,2.627-1.069c1.08,0,1.938,0.346,2.697,1.084c0.74,0.727,1.085,1.543,1.085,2.57
		C128.256,154.078,127.936,154.926,127.24,155.539z"/>
</g>
<polygon fill="#4AA8D3" points="23.855,22.261 23.855,224.55 111.227,224.55 111.227,219.55 28.855,219.55 28.855,27.261 
	221.145,27.261 221.145,219.55 138.773,219.55 138.773,224.55 226.145,224.55 226.145,22.261 "/>
<rect x="122.5" y="219.55" fill="#4AA8D3" width="5" height="5"/>
</svg>
