<?xml version="1.0" encoding="utf-8"?>
<!-- Generator: Adobe Illustrator 16.0.0, SVG Export Plug-In . SVG Version: 6.00 Build 0)  -->
<!DOCTYPE svg PUBLIC "-//W3C//DTD SVG 1.1//EN" "http://www.w3.org/Graphics/SVG/1.1/DTD/svg11.dtd">
<svg version="1.1" id="Layer_1" xmlns="http://www.w3.org/2000/svg" xmlns:xlink="http://www.w3.org/1999/xlink" x="0px" y="0px"
	 width="250px" height="250px" viewBox="0 0 250 250" enable-background="new 0 0 250 250" xml:space="preserve">
<g>
	<path fill="none" d="M96.708,88.423c-1.308-1.046-2.912-1.622-4.515-1.622c-0.147,0-0.295,0.005-0.442,0.015
		c-3.08,0.21-5.756,2.274-6.657,5.134c-0.894,2.909,0.067,6.054,2.451,8.005c1.301,1.014,2.961,1.58,4.656,1.58
		c1.939,0,3.786-0.75,5.066-2.057c2.168-2.203,2.831-5.497,1.65-8.197C98.428,90.177,97.664,89.187,96.708,88.423z"/>
	<path fill="none" d="M108.074,108.986l3.696,2.473l1.537-1.921c-0.796-0.76-1.596-1.518-2.397-2.276l-0.826-0.783
		c-0.754-0.718-0.964-1.765-0.523-2.606c1.451-2.674,2.288-5.543,2.494-8.541c0.047-0.927,0.766-1.718,1.785-1.949l0.831-0.164
		c1.186-0.234,2.371-0.469,3.551-0.708c-0.057-0.521-0.113-1.046-0.17-1.567l-0.097-0.873c-1.481,0.033-2.962,0.072-4.433,0.112
		c-0.001,0-0.002,0-0.003,0c-1.07,0-1.948-0.622-2.208-1.512c-0.887-2.902-2.334-5.522-4.299-7.774
		c-0.614-0.695-0.655-1.723-0.1-2.614l2.493-3.724l-1.928-1.541l-3.051,3.219c-0.771,0.765-1.813,0.95-2.621,0.5
		c-2.626-1.417-5.5-2.252-8.532-2.473c-0.927-0.051-1.752-0.82-1.944-1.827c-0.284-1.439-0.574-2.892-0.868-4.346
		c-0.063,0.007-0.127,0.014-0.191,0.021l-1.006,0.113c-0.415,0.047-0.829,0.093-1.241,0.141c0.024,1.052,0.05,2.108,0.08,3.161
		l0.033,1.274c0,1.074-0.609,1.951-1.517,2.208c-2.87,0.857-5.485,2.303-7.759,4.292c-0.711,0.62-1.827,0.64-2.666,0.082
		l-1.063-0.712c-0.877-0.588-1.754-1.176-2.633-1.762l-1.537,1.923c0.741,0.706,1.487,1.414,2.229,2.116l0.995,0.941
		c0.759,0.731,0.961,1.782,0.512,2.621c-1.438,2.65-2.272,5.518-2.481,8.527c-0.058,0.94-0.779,1.727-1.795,1.948l-1.273,0.25
		c-1.035,0.206-2.07,0.412-3.104,0.621c0.026,0.236,0.052,0.471,0.078,0.707l0.19,1.735c1.482-0.033,2.966-0.071,4.439-0.11
		c0.001,0,0.002,0,0.003,0c1.073,0,1.95,0.625,2.205,1.519c0.871,2.874,2.317,5.492,4.294,7.766
		c0.604,0.685,0.647,1.739,0.101,2.618l-2.494,3.726l1.928,1.542l3.05-3.221c0.508-0.491,1.092-0.744,1.677-0.744
		c0.329,0,0.653,0.082,0.938,0.237c2.648,1.424,5.522,2.26,8.54,2.48c0.93,0.05,1.757,0.819,1.948,1.828
		c0.283,1.438,0.571,2.889,0.862,4.344l0.73-0.085c0.571-0.064,1.142-0.129,1.71-0.194c-0.025-1.193-0.057-2.391-0.088-3.591
		l-0.025-0.837c0-1.065,0.605-1.941,1.507-2.212c2.867-0.854,5.479-2.299,7.767-4.295
		C106.126,108.446,107.223,108.42,108.074,108.986z M102.902,96.387c-0.836,3.839-3.566,6.966-7.124,8.161
		c-1.169,0.397-2.387,0.599-3.617,0.599c-2.445,0-4.854-0.82-6.796-2.311l-0.1-0.077c-3.218-2.63-4.749-6.86-3.899-10.776
		c0.905-4.153,4.039-7.46,7.984-8.426c3.691-0.91,7.779,0.148,10.374,2.684C102.464,88.928,103.681,92.815,102.902,96.387z"/>
	<path fill="none" d="M141.813,131.26c-1.258,0-2.5,0.174-3.689,0.516c-5.816,1.66-10.088,6.701-10.627,12.543
		c-0.546,5.938,2.564,11.557,7.93,14.315c1.955,0.951,4.188,1.46,6.438,1.46c4.998,0,9.494-2.377,12.027-6.357
		c3.241-5.094,3.148-11.67-0.229-16.365C150.943,133.602,146.402,131.26,141.813,131.26z"/>
	<path fill="none" d="M172.214,131.926c-1.091,0.254-2.136-0.166-2.601-1.015c-2.283-4.159-5.365-7.713-9.16-10.561
		c-0.896-0.681-0.953-1.85-0.613-2.708l2.848-7.186l-5.074-2.539l-4.045,6.588c-0.555,0.92-1.602,1.396-2.525,1.134
		c-4.555-1.334-9.254-1.67-13.955-1.005c-0.968,0.14-1.925-0.465-2.359-1.467l-3.07-7.102c-1.793,0.594-3.59,1.193-5.383,1.791
		c0.599,2.505,1.197,5.011,1.807,7.518c0.257,1.087-0.152,2.13-1.018,2.602c-4.161,2.285-7.714,5.366-10.563,9.155
		c-0.574,0.77-1.711,1.014-2.701,0.625l-7.189-2.855c-0.753,1.51-1.511,3.021-2.269,4.531l-0.272,0.545
		c2.197,1.35,4.393,2.695,6.591,4.041c0.945,0.586,1.395,1.604,1.125,2.535c-1.328,4.562-1.663,9.254-0.996,13.949
		c0.136,0.967-0.452,1.917-1.464,2.365c-2.217,0.949-4.42,1.9-6.625,2.854l-0.485,0.209l1.793,5.387l7.52-1.801
		c1.083-0.252,2.144,0.166,2.602,1.021c2.275,4.146,5.355,7.697,9.152,10.553c0.907,0.688,0.963,1.858,0.617,2.717l-2.845,7.176
		l5.072,2.541l4.048-6.59c0.549-0.916,1.598-1.396,2.525-1.133c4.561,1.328,9.263,1.664,13.951,1
		c0.098-0.014,0.19-0.021,0.283-0.021c0.866,0,1.684,0.587,2.078,1.492l0.805,1.861c0.757,1.746,1.513,3.491,2.267,5.242
		c1.796-0.602,3.591-1.2,5.39-1.797l-1.808-7.516c-0.253-1.084,0.151-2.125,1.005-2.601c4.169-2.29,7.727-5.372,10.571-9.165
		c0.591-0.773,1.707-1.008,2.707-0.613l7.186,2.851c0.849-1.688,1.693-3.38,2.539-5.075l-6.586-4.043
		c-0.948-0.58-1.403-1.602-1.13-2.537c1.327-4.545,1.663-9.236,0.999-13.945c-0.146-0.963,0.442-1.916,1.47-2.363l7.104-3.063
		l-1.795-5.381L172.214,131.926z M151.541,161.484c-2.951,1.758-6.303,2.688-9.688,2.688c-0.002,0-0.002,0-0.002,0
		c-2.865,0-5.641-0.643-8.244-1.908c-6.246-3.221-10.254-9.641-10.23-16.369c0.026-7.162,4.016-13.709,10.161-16.678
		c2.651-1.285,5.592-1.964,8.502-1.964c3.438,0,6.731,0.938,9.526,2.716c5.447,3.461,8.822,9.428,8.811,15.57
		C160.35,152.146,156.964,158.256,151.541,161.484z"/>
	<path fill="#4AA8D3" d="M89.351,83.557c-3.945,0.965-7.079,4.272-7.984,8.426c-0.85,3.916,0.681,8.146,3.899,10.776l0.1,0.077
		c1.942,1.491,4.352,2.311,6.796,2.311c1.23,0,2.448-0.202,3.617-0.599c3.557-1.195,6.287-4.322,7.124-8.161
		c0.779-3.572-0.438-7.459-3.177-10.146C97.13,83.706,93.042,82.647,89.351,83.557z M97.267,99.479
		c-1.281,1.307-3.127,2.057-5.066,2.057c-1.694,0-3.355-0.566-4.656-1.58c-2.383-1.951-3.344-5.096-2.451-8.005
		c0.901-2.86,3.577-4.923,6.657-5.134c0.147-0.01,0.295-0.015,0.442-0.015c1.603,0,3.207,0.576,4.515,1.622
		c0.956,0.763,1.72,1.753,2.209,2.858C100.098,93.982,99.436,97.276,97.267,99.479z"/>
	<path fill="#4AA8D3" d="M100.685,121.836l-0.13-4.833c2.29-0.852,4.427-2.029,6.371-3.507l4.02,2.677
		c0.178,0.121,0.381,0.217,0.568,0.271c0.88,0.318,1.852,0.042,2.429-0.685l4.04-5.053c0.729-0.91,0.623-2.175-0.251-3.007
		c-1.165-1.114-2.332-2.225-3.502-3.338c1.012-2.218,1.689-4.562,2.018-6.986l4.775-0.945c1.174-0.258,1.928-1.27,1.794-2.399
		l-0.729-6.451c-0.127-1.124-1.075-1.939-2.301-1.939h-0.001c-1.61,0.041-3.223,0.079-4.829,0.117
		c-0.848-2.282-2.026-4.419-3.512-6.369c0.622-0.938,1.248-1.878,1.878-2.818l0.804-1.203c0.665-0.987,0.485-2.273-0.416-2.99
		l-5.048-4.038c-0.883-0.707-2.211-0.594-3.006,0.249l-1.001,1.054c-0.778,0.819-1.557,1.638-2.337,2.45
		c-2.229-1.021-4.571-1.699-6.983-2.021l-0.949-4.754c-0.23-1.07-1.127-1.818-2.182-1.818c-0.067,0-0.135,0.003-0.223,0.012
		l-6.424,0.715c-1.151,0.106-1.978,1.069-1.967,2.302c0.032,1.486,0.073,2.979,0.114,4.474l0.01,0.361
		c-2.289,0.855-4.424,2.033-6.365,3.51c-1.348-0.899-2.688-1.792-4.026-2.68c-0.972-0.649-2.285-0.466-2.991,0.415l-4.039,5.053
		c-0.73,0.908-0.625,2.174,0.251,3.011l3.502,3.337c-1.017,2.232-1.695,4.574-2.021,6.98l-0.722,0.142
		c-1.342,0.264-2.688,0.533-4.036,0.808c-1.191,0.252-1.949,1.268-1.806,2.4l0.244,2.161c0.161,1.426,0.32,2.854,0.479,4.303
		c0.14,1.118,1.095,1.93,2.307,1.93c0,0,0,0,0.001,0l4.833-0.122c0.847,2.287,2.025,4.423,3.51,6.367
		c-0.532,0.806-1.068,1.608-1.604,2.409l-1.076,1.61c-0.668,0.987-0.493,2.277,0.41,3.001l5.05,4.037
		c0.876,0.701,2.228,0.581,3.006-0.252l1.045-1.101c0.759-0.804,1.522-1.608,2.291-2.409c2.229,1.024,4.571,1.702,6.983,2.021
		c0.318,1.58,0.636,3.161,0.952,4.749c0.109,0.54,0.398,1.022,0.812,1.356c0.383,0.31,0.847,0.474,1.342,0.474
		c0.078,0,0.156-0.004,0.25-0.014c1.282-0.151,2.565-0.293,3.854-0.429l2.583-0.284C99.872,124.03,100.693,123.067,100.685,121.836z
		 M96.132,115.572l0.025,0.837c0.031,1.2,0.063,2.398,0.088,3.591c-0.568,0.065-1.139,0.13-1.71,0.194l-0.73,0.085
		c-0.292-1.455-0.579-2.905-0.862-4.344c-0.191-1.009-1.019-1.778-1.948-1.828c-3.017-0.221-5.892-1.056-8.54-2.48
		c-0.285-0.155-0.61-0.237-0.938-0.237c-0.585,0-1.169,0.252-1.677,0.744l-3.05,3.221l-1.928-1.542l2.494-3.726
		c0.546-0.879,0.503-1.934-0.101-2.618c-1.977-2.274-3.423-4.892-4.294-7.766c-0.255-0.895-1.132-1.519-2.205-1.519
		c-0.001,0-0.002,0-0.003,0c-1.473,0.04-2.957,0.078-4.439,0.11l-0.19-1.735c-0.026-0.236-0.052-0.471-0.078-0.707
		c1.034-0.209,2.069-0.415,3.104-0.621l1.273-0.25c1.016-0.221,1.737-1.008,1.795-1.948c0.209-3.009,1.043-5.876,2.481-8.527
		c0.45-0.839,0.247-1.889-0.512-2.621l-0.995-0.941c-0.742-0.702-1.487-1.41-2.229-2.116l1.537-1.923
		c0.878,0.585,1.755,1.173,2.633,1.762l1.063,0.712c0.839,0.558,1.955,0.538,2.666-0.082c2.274-1.99,4.889-3.435,7.759-4.292
		c0.908-0.257,1.518-1.134,1.517-2.208l-0.033-1.274c-0.03-1.053-0.056-2.109-0.08-3.161c0.413-0.047,0.826-0.094,1.241-0.141
		l1.006-0.113c0.064-0.007,0.128-0.014,0.191-0.021c0.294,1.454,0.584,2.907,0.868,4.346c0.192,1.007,1.018,1.776,1.944,1.827
		c3.032,0.221,5.906,1.056,8.532,2.473c0.808,0.45,1.85,0.265,2.621-0.5l3.051-3.219l1.928,1.541l-2.493,3.724
		c-0.555,0.891-0.515,1.919,0.1,2.614c1.965,2.252,3.413,4.872,4.299,7.774c0.26,0.89,1.138,1.512,2.208,1.512
		c0.001,0,0.002,0,0.003,0c1.471-0.04,2.952-0.079,4.433-0.112l0.097,0.873c0.057,0.521,0.113,1.045,0.17,1.567
		c-1.18,0.239-2.365,0.474-3.551,0.708l-0.831,0.164c-1.02,0.231-1.738,1.021-1.785,1.949c-0.207,2.998-1.043,5.867-2.494,8.541
		c-0.441,0.841-0.231,1.888,0.523,2.606l0.826,0.783c0.801,0.758,1.601,1.516,2.397,2.276l-1.537,1.921l-3.696-2.473
		c-0.852-0.566-1.948-0.54-2.668,0.079c-2.287,1.996-4.9,3.441-7.767,4.295C96.737,113.63,96.131,114.507,96.132,115.572z"/>
	<path fill="#4AA8D3" d="M151.566,129.969c-2.795-1.777-6.09-2.716-9.527-2.716c-2.91,0-5.852,0.679-8.502,1.964
		c-6.146,2.969-10.135,9.516-10.161,16.678c-0.023,6.729,3.983,13.148,10.231,16.369c2.604,1.266,5.377,1.908,8.244,1.908l0,0
		c3.387,0,6.736-0.93,9.688-2.688c5.423-3.229,8.811-9.338,8.835-15.945C160.389,139.396,157.014,133.43,151.566,129.969z
		 M153.891,153.736c-2.533,3.979-7.029,6.354-12.029,6.354c-2.248,0-4.48-0.508-6.438-1.459c-5.363-2.761-8.477-8.38-7.93-14.313
		c0.539-5.842,4.811-10.883,10.627-12.545c1.191-0.34,2.434-0.516,3.689-0.516c4.592,0,9.133,2.344,11.849,6.109
		C157.038,142.064,157.131,148.643,153.891,153.736z"/>
	<path fill="#4AA8D3" d="M186.529,136.053c-1.033-3.123-2.072-6.25-3.11-9.359c-0.366-1.137-1.587-1.776-2.815-1.481l-0.957,0.229
		c-2.312,0.556-4.627,1.114-6.94,1.665c-2.144-3.526-4.837-6.637-8.022-9.256c0.858-2.18,1.727-4.36,2.592-6.539l0.404-1.018
		c0.469-1.194,0.021-2.452-1.063-2.99l-8.829-4.419c-1.063-0.534-2.372-0.12-3.031,0.948l-4.245,6.926
		c-3.986-0.971-8.111-1.266-12.222-0.872l-3.224-7.461c-0.498-1.146-1.767-1.738-2.864-1.366l-9.356,3.118
		c-1.161,0.378-1.784,1.563-1.481,2.815l1.895,7.904c-3.533,2.143-6.642,4.836-9.258,8.021l-7.555-2.999
		c-1.163-0.458-2.469,0-2.993,1.065l-4.415,8.819c-0.543,1.078-0.148,2.354,0.949,3.039c2.307,1.408,4.615,2.824,6.923,4.246
		c-0.98,4.016-1.272,8.119-0.869,12.219l-7.466,3.221c-1.18,0.518-1.753,1.727-1.365,2.867l3.118,9.36
		c0.31,0.94,1.17,1.55,2.192,1.55c0.208,0,0.418-0.025,0.62-0.074l0.749-0.18c2.387-0.572,4.772-1.143,7.157-1.717
		c2.149,3.539,4.842,6.648,8.018,9.26l-2.995,7.561c-0.464,1.195-0.017,2.451,1.062,2.988l8.819,4.412
		c1.068,0.545,2.382,0.123,3.035-0.947c1.412-2.313,2.826-4.619,4.252-6.92c3.98,0.969,8.109,1.266,12.22,0.864l3.224,7.472
		c0.395,0.898,1.234,1.479,2.145,1.479c0.242,0,0.484-0.041,0.72-0.119l2.673-0.889c2.23-0.742,4.459-1.484,6.694-2.224
		c1.147-0.383,1.769-1.565,1.471-2.816l-1.894-7.901c3.521-2.139,6.632-4.834,9.256-8.024l7.563,3
		c0.202,0.078,0.414,0.127,0.649,0.149c0.123,0.021,0.248,0.029,0.372,0.029c0.842,0,1.578-0.466,1.969-1.244l4.409-8.819
		c0.545-1.08,0.149-2.354-0.947-3.037c-1.493-0.912-2.981-1.826-4.472-2.739l-2.453-1.507c0.979-4.004,1.27-8.106,0.869-12.221
		l7.458-3.224C186.339,138.41,186.915,137.205,186.529,136.053z M174.428,138.57c-1.025,0.447-1.615,1.4-1.471,2.363
		c0.664,4.709,0.328,9.398-0.999,13.943c-0.274,0.938,0.181,1.957,1.13,2.537l6.586,4.043c-0.846,1.693-1.691,3.386-2.539,5.075
		l-7.185-2.853c-1-0.393-2.117-0.158-2.708,0.615c-2.848,3.793-6.402,6.875-10.571,9.165c-0.853,0.474-1.258,1.515-1.005,2.599
		l1.807,7.518c-1.798,0.597-3.593,1.193-5.389,1.797c-0.754-1.751-1.509-3.496-2.266-5.242l-0.805-1.859
		c-0.396-0.908-1.211-1.494-2.078-1.494c-0.093,0-0.188,0.008-0.283,0.021c-4.689,0.664-9.394,0.328-13.952-1
		c-0.931-0.265-1.979,0.218-2.525,1.134l-4.048,6.588l-5.072-2.539l2.845-7.179c0.346-0.854,0.29-2.024-0.617-2.715
		c-3.797-2.854-6.877-6.405-9.152-10.553c-0.458-0.854-1.519-1.271-2.602-1.021l-7.52,1.801l-1.793-5.387l0.485-0.209
		c2.204-0.953,4.408-1.904,6.625-2.854c1.012-0.448,1.6-1.397,1.464-2.365c-0.667-4.693-0.332-9.391,0.996-13.95
		c0.27-0.932-0.18-1.948-1.125-2.534c-2.199-1.346-4.395-2.691-6.591-4.041l0.272-0.543c0.757-1.512,1.516-3.021,2.269-4.533
		l7.189,2.855c0.99,0.389,2.127,0.145,2.701-0.625c2.847-3.789,6.401-6.87,10.562-9.155c0.865-0.471,1.273-1.514,1.019-2.602
		c-0.606-2.506-1.208-5.012-1.808-7.518c1.793-0.598,3.591-1.196,5.384-1.791l3.069,7.102c0.438,1.002,1.395,1.607,2.36,1.467
		c4.701-0.665,9.401-0.329,13.955,1.005c0.927,0.263,1.972-0.213,2.526-1.134l4.045-6.588l5.074,2.539l-2.849,7.186
		c-0.34,0.858-0.282,2.027,0.613,2.708c3.795,2.848,6.877,6.401,9.161,10.561c0.464,0.85,1.509,1.268,2.6,1.016l7.521-1.802
		l1.795,5.381L174.428,138.57z"/>
</g>
<polygon fill="#4AA8D3" points="23.855,22.261 23.855,224.55 111.227,224.55 111.227,219.55 28.855,219.55 28.855,27.261 
	221.145,27.261 221.145,219.55 138.773,219.55 138.773,224.55 226.145,224.55 226.145,22.261 "/>
<rect x="122.5" y="219.55" fill="#4AA8D3" width="5" height="5"/>
</svg>
