<?xml version="1.0" encoding="utf-8"?>
<!-- Generator: Adobe Illustrator 16.0.0, SVG Export Plug-In . SVG Version: 6.00 Build 0)  -->
<!DOCTYPE svg PUBLIC "-//W3C//DTD SVG 1.1//EN" "http://www.w3.org/Graphics/SVG/1.1/DTD/svg11.dtd">
<svg version="1.1" id="Layer_1" xmlns="http://www.w3.org/2000/svg" xmlns:xlink="http://www.w3.org/1999/xlink" x="0px" y="0px"
	 width="250px" height="250px" viewBox="0 0 250 250" enable-background="new 0 0 250 250" xml:space="preserve">
<path fill="#4AA8D3" d="M224.482,151.68c-8.938,36.041-36.772,64.496-72.64,74.262c-1.336,0.36-2.707-0.424-3.067-1.756
	c-0.362-1.332,0.423-2.707,1.754-3.067c34.117-9.288,60.597-36.356,69.103-70.642c12.943-52.181-18.978-105.164-71.155-118.106
	C123.2,26.1,96.995,30.047,74.685,43.488C52.378,56.927,36.639,78.25,30.369,103.527c-12.944,52.18,18.977,105.165,71.156,118.107
	c1.34,0.332,2.156,1.688,1.824,3.028c-0.282,1.138-1.303,1.896-2.424,1.896c-0.199,0-0.402-0.021-0.604-0.074
	c-54.856-13.606-88.413-69.309-74.805-124.164c6.592-26.573,23.138-48.988,46.589-63.117c23.452-14.13,51.002-18.281,77.575-11.688
	C204.534,41.124,238.093,96.823,224.482,151.68z M124.999,221.748c-2.209,0-4,1.791-4,4s1.791,4,4,4s4-1.791,4-4
	S127.208,221.748,124.999,221.748z"/>
<g>
	<rect x="115.773" y="127.313" fill="none" width="18.864" height="50.963"/>
	<rect x="81.138" y="146.179" fill="none" width="18.864" height="32.098"/>
	<rect x="150.408" y="109.857" fill="none" width="18.864" height="68.419"/>
	<path fill="#4AA8D3" d="M102.114,141.955H79.026c-1.167,0-2.112,0.945-2.112,2.112v36.32c0,1.167,0.945,2.112,2.112,2.112h23.087
		c1.167,0,2.112-0.945,2.112-2.112v-36.32C104.226,142.9,103.28,141.955,102.114,141.955z M100.002,178.276H81.138v-32.098h18.864
		V178.276z"/>
	<path fill="#4AA8D3" d="M136.749,123.091h-23.088c-1.167,0-2.112,0.945-2.112,2.111v55.186c0,1.167,0.945,2.112,2.112,2.112h23.088
		c1.166,0,2.111-0.945,2.111-2.112v-55.186C138.86,124.036,137.915,123.091,136.749,123.091z M134.637,178.276h-18.864v-50.963
		h18.864V178.276z"/>
	<path fill="#4AA8D3" d="M171.384,105.634h-23.088c-1.166,0-2.111,0.945-2.111,2.112v72.642c0,1.167,0.945,2.112,2.111,2.112h23.088
		c1.166,0,2.111-0.945,2.111-2.112v-72.642C173.495,106.579,172.55,105.634,171.384,105.634z M169.272,178.276h-18.864v-68.419
		h18.864V178.276z"/>
	<path fill="#4AA8D3" d="M136.304,67.5l-21.968,12.675l2.11,3.663l16.046-9.264c-7.292,23.693-29.771,38.494-53.545,34.729
		c-1.147-0.184-2.233,0.604-2.417,1.755c-0.182,1.152,0.604,2.234,1.756,2.416c2.632,0.417,5.271,0.623,7.9,0.623
		c10.377,0,20.575-3.211,29.354-9.341c9.669-6.752,16.875-16.521,20.632-27.83l7.375,15.249l3.803-1.844L136.304,67.5z"/>
</g>
</svg>
