<?xml version="1.0" encoding="utf-8"?>
<!-- Generator: Adobe Illustrator 16.0.0, SVG Export Plug-In . SVG Version: 6.00 Build 0)  -->
<!DOCTYPE svg PUBLIC "-//W3C//DTD SVG 1.1//EN" "http://www.w3.org/Graphics/SVG/1.1/DTD/svg11.dtd">
<svg version="1.1" id="Layer_1" xmlns="http://www.w3.org/2000/svg" xmlns:xlink="http://www.w3.org/1999/xlink" x="0px" y="0px"
	 width="250px" height="250px" viewBox="0 0 250 250" enable-background="new 0 0 250 250" xml:space="preserve">
<path fill="none" d="M118.548,129.738V72.817c-29.937,1.473-53.239,25.875-53.239,56c0,30.912,25.146,56.063,56.057,56.063
	c17.709,0,32.78-7.212,43.651-20.866l-46.059-33.466C118.701,130.359,118.548,130.059,118.548,129.738z"/>
<path fill="none" d="M186.992,114.415c-2.342-14.79-10.305-27.781-22.426-36.582c-9.313-6.771-18.909-10.169-30.127-10.653v54.572
	l44.138,32.07C186.189,142.17,189.178,128.218,186.992,114.415z"/>
<path fill="#4AA8D3" d="M179.066,161.132c0.172,0.125,0.379,0.19,0.588,0.19c0.053,0,0.104-0.004,0.156-0.012
	c0.263-0.041,0.498-0.187,0.652-0.4l1.064-1.469c9.686-13.33,13.598-29.633,11.018-45.906c-2.577-16.275-11.34-30.57-24.673-40.253
	c-11.056-8.038-22.574-11.782-36.25-11.782h-1.812c-0.554,0-1,0.448-1,1v61.608c0,0.32,0.152,0.621,0.412,0.809L179.066,161.132z
	 M134.439,67.18c11.218,0.484,20.814,3.882,30.127,10.653c12.121,8.801,20.084,21.792,22.426,36.582
	c2.186,13.803-0.803,27.755-8.415,39.407l-44.138-32.07V67.18z"/>
<path fill="#4AA8D3" d="M123.177,67.123h-1.812c-34.014,0-61.686,27.674-61.686,61.691c0,34.014,27.672,61.686,61.686,61.686
	c20.561,0,37.818-8.793,49.902-25.424l1.07-1.465c0.158-0.215,0.223-0.482,0.182-0.744c-0.041-0.264-0.185-0.498-0.398-0.654
	l-47.943-34.831V68.123C124.177,67.571,123.729,67.123,123.177,67.123z M165.018,164.012c-10.871,13.655-25.941,20.867-43.65,20.867
	c-30.911,0-56.057-25.15-56.057-56.063c0-30.125,23.302-54.526,53.239-56v56.92c0,0.32,0.153,0.621,0.412,0.81L165.018,164.012z"/>
<polygon fill="#4AA8D3" points="23.855,22.261 23.855,224.55 111.227,224.55 111.227,219.55 28.855,219.55 28.855,27.261 
	221.145,27.261 221.145,219.55 138.773,219.55 138.773,224.55 226.145,224.55 226.145,22.261 "/>
<rect x="122.5" y="219.55" fill="#4AA8D3" width="5" height="5"/>
</svg>
