<?xml version="1.0" encoding="utf-8"?>
<!-- Generator: Adobe Illustrator 16.0.0, SVG Export Plug-In . SVG Version: 6.00 Build 0)  -->
<!DOCTYPE svg PUBLIC "-//W3C//DTD SVG 1.1//EN" "http://www.w3.org/Graphics/SVG/1.1/DTD/svg11.dtd">
<svg version="1.1" id="Layer_1" xmlns="http://www.w3.org/2000/svg" xmlns:xlink="http://www.w3.org/1999/xlink" x="0px" y="0px"
	 width="74.875px" height="50px" viewBox="0 0 74.875 50" enable-background="new 0 0 74.875 50" xml:space="preserve">
<path opacity="0.35" fill="#FFFFFF" d="M20.989,38.227c-0.019,0-0.037-0.004-0.055-0.008c-0.239-0.048-0.409-0.271-0.385-0.521
	c0.025-0.269,0.263-0.466,0.53-0.439c7.103,0.656,13.417-4.586,14.074-11.688c0.224-2.42-0.239-4.786-1.255-6.87
	c0.137,0.932,0.115,1.901-0.087,2.875c-0.927,4.47-5.302,7.343-9.772,6.416c-4.471-0.927-7.343-5.302-6.416-9.772
	c0.927-4.469,5.302-7.342,9.771-6.415c0.002,0,0.004,0.001,0.007,0.001c1.104,0.23,2.109,0.67,2.984,1.27
	c0.25,0.171,0.487,0.355,0.715,0.55c3.506,2.879,5.456,7.36,5.023,12.036C35.415,33.297,28.626,38.936,20.989,38.227z M57.391,25.66
	c0.432-4.676-1.519-9.157-5.023-12.036c-0.227-0.195-0.465-0.379-0.715-0.55c-0.875-0.6-1.879-1.04-2.984-1.27
	c-0.002,0-0.004-0.001-0.007-0.001c-4.47-0.928-8.845,1.945-9.771,6.415c-0.928,4.47,1.945,8.847,6.416,9.772
	c4.469,0.926,8.844-1.945,9.771-6.416c0.203-0.974,0.224-1.944,0.087-2.875c1.017,2.084,1.479,4.449,1.255,6.871
	c-0.656,7.103-6.971,12.346-14.072,11.688c-0.269-0.023-0.506,0.172-0.529,0.439c-0.023,0.251,0.146,0.474,0.386,0.521
	c0.019,0.005,0.036,0.007,0.055,0.009C49.893,38.936,56.684,33.297,57.391,25.66z"/>
</svg>
