<?xml version="1.0" encoding="utf-8"?>
<!-- Generator: Adobe Illustrator 16.0.0, SVG Export Plug-In . SVG Version: 6.00 Build 0)  -->
<!DOCTYPE svg PUBLIC "-//W3C//DTD SVG 1.1//EN" "http://www.w3.org/Graphics/SVG/1.1/DTD/svg11.dtd">
<svg version="1.1" id="Layer_1" xmlns="http://www.w3.org/2000/svg" xmlns:xlink="http://www.w3.org/1999/xlink" x="0px" y="0px"
	 width="250px" height="250px" viewBox="0 0 250 250" enable-background="new 0 0 250 250" xml:space="preserve">
<path fill="#4AA8D3" d="M224.482,151.68c-8.938,36.041-36.772,64.496-72.64,74.262c-1.336,0.36-2.707-0.424-3.067-1.756
	c-0.362-1.332,0.423-2.707,1.754-3.067c34.117-9.288,60.597-36.356,69.103-70.642c12.943-52.181-18.978-105.164-71.155-118.106
	C123.2,26.1,96.995,30.047,74.685,43.488C52.378,56.927,36.639,78.25,30.369,103.527c-12.944,52.18,18.977,105.165,71.156,118.107
	c1.34,0.332,2.156,1.688,1.824,3.028c-0.282,1.138-1.303,1.896-2.424,1.896c-0.199,0-0.402-0.021-0.604-0.074
	c-54.856-13.606-88.413-69.309-74.805-124.164c6.592-26.573,23.138-48.988,46.589-63.117c23.452-14.13,51.002-18.281,77.575-11.688
	C204.534,41.124,238.093,96.823,224.482,151.68z M124.999,221.748c-2.209,0-4,1.791-4,4s1.791,4,4,4s4-1.791,4-4
	S127.208,221.748,124.999,221.748z"/>
<g>
	<path fill="none" d="M105.602,175.984c-0.947,0-1.719,0.771-1.719,1.719c0,0.946,0.771,1.717,1.719,1.717h38.795
		c0.948,0,1.719-0.771,1.719-1.717c0-0.948-0.771-1.719-1.719-1.719h-1.019h-36.315H105.602z"/>
	<path fill="none" d="M112.043,96.028c-4.992,0-9.055,4.069-9.055,9.073c0,4.989,4.063,9.049,9.055,9.049h9.057v-9.049
		C121.1,100.098,117.037,96.028,112.043,96.028z"/>
	<rect x="110.558" y="168.336" fill="none" width="29.325" height="4.153"/>
	<path fill="none" d="M125.217,188.108c4.533,0,10.09-0.843,12.869-4.494h-25.732C115.132,187.266,120.687,188.108,125.217,188.108z
		"/>
	<path fill="none" d="M105.602,160.814c-0.947,0-1.719,0.769-1.719,1.713c0,0.946,0.771,1.716,1.719,1.716h38.795
		c0.948,0,1.719-0.77,1.719-1.716c0-0.944-0.771-1.713-1.719-1.713H105.602z"/>
	<rect x="124.357" y="117.42" fill="none" width="1.284" height="39.391"/>
	<path fill="none" d="M161.699,101.273c0-19.066-16.807-35.175-36.7-35.175c-19.892,0-36.698,16.108-36.698,35.175
		c0,0.981,0.047,1.985,0.145,3.07l0.011,0.122l-0.006,0.121c-0.005,0.092-0.015,0.185-0.026,0.278
		c-0.002,0.009-0.002,0.008-0.002-0.004c0.01,10.786,6.523,19.862,12.271,27.873c3.217,4.482,6.255,8.717,7.736,12.745
		c0.613,1.674,0.416,7.548,0.213,11.331H121.1V117.42h-9.057c-6.796,0-12.325-5.526-12.325-12.318
		c0-6.796,5.529-12.326,12.325-12.326c6.79,0,12.314,5.53,12.314,12.326v9.049h1.284v-9.049c0-6.796,5.526-12.326,12.318-12.326
		c6.794,0,12.32,5.53,12.32,12.326c0,6.792-5.526,12.318-12.32,12.318h-9.063v39.391h12.466c-0.205-3.784-0.403-9.659,0.215-11.334
		c1.479-4.025,4.519-8.262,7.736-12.747c5.741-8,12.247-17.068,12.27-27.839c-0.017-0.125-0.026-0.216-0.031-0.305l-0.007-0.123
		l0.011-0.123C161.652,103.226,161.699,102.223,161.699,101.273z"/>
	<path fill="none" d="M147.009,105.102c0-5.004-4.06-9.073-9.049-9.073c-4.997,0-9.063,4.069-9.063,9.073v9.049h9.063
		C142.949,114.15,147.009,110.091,147.009,105.102z"/>
	<path fill="#4AA8D3" d="M165.194,101.273c0-20.961-18.407-38.67-40.195-38.67c-21.787,0-40.193,17.709-40.193,38.67
		c0,1.034,0.047,2.086,0.144,3.212c-0.013,0.117-0.022,0.234-0.022,0.351c0,11.921,6.866,21.491,12.926,29.936
		c3.074,4.284,5.979,8.332,7.292,11.904c0.311,0.966,0.226,6.07-0.034,10.668c-2.646,0.249-4.723,2.478-4.723,5.184
		c0,2.873,2.339,5.211,5.214,5.211h1.461v4.751h-1.461c-2.875,0-5.214,2.339-5.214,5.214c0,2.874,2.339,5.212,5.214,5.212h2.407
		c2.211,5.682,8.139,8.688,17.208,8.688c9.073,0,15.003-3.007,17.214-8.688h1.966c2.876,0,5.215-2.338,5.215-5.212
		c0-2.875-2.339-5.214-5.215-5.214h-1.019v-4.751h1.019c2.876,0,5.215-2.338,5.215-5.211c0-2.704-2.074-4.932-4.717-5.183
		c-0.263-4.594-0.349-9.696-0.038-10.659c1.317-3.584,4.222-7.632,7.297-11.917c6.059-8.443,12.925-18.014,12.925-29.933
		c0-0.119-0.01-0.24-0.025-0.365C165.147,103.323,165.194,102.275,165.194,101.273z M125.217,188.108
		c-4.53,0-10.085-0.843-12.863-4.494h25.732C135.307,187.266,129.75,188.108,125.217,188.108z M144.396,175.984
		c0.948,0,1.719,0.771,1.719,1.719c0,0.946-0.771,1.717-1.719,1.717h-38.795c-0.947,0-1.719-0.771-1.719-1.717
		c0-0.948,0.771-1.719,1.719-1.719h1.461h36.315H144.396z M110.558,172.489v-4.153h29.325v4.153H110.558z M121.1,105.102v9.049
		h-9.057c-4.992,0-9.055-4.06-9.055-9.049c0-5.004,4.063-9.073,9.055-9.073C117.037,96.028,121.1,100.098,121.1,105.102z
		 M124.357,117.42h1.284v39.391h-1.284V117.42z M128.896,114.15v-9.049c0-5.004,4.066-9.073,9.063-9.073
		c4.989,0,9.049,4.069,9.049,9.073c0,4.989-4.06,9.049-9.049,9.049H128.896z M146.115,162.527c0,0.946-0.771,1.716-1.719,1.716
		h-38.795c-0.947,0-1.719-0.77-1.719-1.716c0-0.944,0.771-1.713,1.719-1.713h38.795
		C145.345,160.814,146.115,161.583,146.115,162.527z M161.552,104.586c0.005,0.089,0.015,0.18,0.031,0.305
		c-0.022,10.771-6.528,19.839-12.27,27.839c-3.218,4.485-6.257,8.722-7.736,12.747c-0.618,1.675-0.42,7.55-0.215,11.334h-12.466
		V117.42h9.063c6.794,0,12.32-5.526,12.32-12.318c0-6.796-5.526-12.326-12.32-12.326c-6.792,0-12.318,5.53-12.318,12.326v9.049
		h-1.284v-9.049c0-6.796-5.524-12.326-12.314-12.326c-6.796,0-12.325,5.53-12.325,12.326c0,6.792,5.529,12.318,12.325,12.318h9.057
		v39.391h-12.458c0.203-3.783,0.4-9.657-0.213-11.331c-1.481-4.028-4.52-8.263-7.736-12.745
		c-5.747-8.011-12.261-17.087-12.271-27.873c0,0.012,0,0.013,0.002,0.004c0.012-0.094,0.021-0.187,0.026-0.278l0.006-0.121
		l-0.011-0.122c-0.098-1.085-0.145-2.089-0.145-3.07c0-19.066,16.807-35.175,36.698-35.175c19.894,0,36.7,16.108,36.7,35.175
		c0,0.949-0.047,1.952-0.144,3.066l-0.011,0.123L161.552,104.586z"/>
</g>
</svg>
