<?xml version="1.0" encoding="utf-8"?>
<!-- Generator: Adobe Illustrator 16.0.0, SVG Export Plug-In . SVG Version: 6.00 Build 0)  -->
<!DOCTYPE svg PUBLIC "-//W3C//DTD SVG 1.1//EN" "http://www.w3.org/Graphics/SVG/1.1/DTD/svg11.dtd">
<svg version="1.1" id="Layer_1" xmlns="http://www.w3.org/2000/svg" xmlns:xlink="http://www.w3.org/1999/xlink" x="0px" y="0px"
	 width="250px" height="250px" viewBox="0 0 250 250" enable-background="new 0 0 250 250" xml:space="preserve">
<path fill="none" d="M91.984,143.531h-0.025c-4.47,0-9.166,2.43-13.96,7.221c-6.601,6.618-9.76,26.484-10.764,34.229
	c7.738-0.996,27.588-4.135,34.215-10.77c8.934-8.936,9.522-17.414,1.748-25.201C99.563,145.375,95.79,143.531,91.984,143.531z"/>
<path fill="none" d="M173.354,83.752c3.078-4.279,6.176-8.575,9.299-12.844c0.519-0.711,0.633-0.967,0.638-1.056
	c-0.019-0.071-0.149-0.281-0.69-0.831c-0.582-0.579-0.951-0.812-1.096-0.877c-0.122,0.034-0.479,0.166-1.13,0.632
	c-7.5,5.278-14.947,10.521-22.396,15.797c-20.186,14.363-38.591,30.456-54.711,47.836c7.522,4.735,10.197,7.43,15.439,15.521
	c12.364-10.904,23.321-22.464,32.581-34.367c7.377-9.484,14.473-19.303,21.336-28.8L173.354,83.752z"/>
<path fill="#4AA8D3" d="M176.377,87.791l0.887-1.222c2.938-4.085,6.073-8.44,9.279-12.818c2.229-3.058,2.073-5.487-0.529-8.125
	c-2.048-2.046-3.479-2.309-4.498-2.309c-1.22,0-2.471,0.487-3.93,1.529l-0.154,0.108c-7.438,5.236-14.845,10.446-22.244,15.693
	c-20.586,14.648-39.351,31.076-55.773,48.832c-0.516,0.563-1.069,1.207-1.693,1.972l-1.743,2.14l2.36,1.438
	c9.525,5.801,11.354,7.63,17.789,17.813l1.422,2.229l2.09-1.619c0.386-0.301,0.747-0.604,1.141-0.934
	c13.047-11.391,24.589-23.502,34.307-35.997C162.389,107.139,169.5,97.303,176.377,87.791z M118.705,147.93
	c-5.242-8.091-7.917-10.785-15.439-15.521c16.12-17.38,34.527-33.473,54.712-47.836c7.446-5.276,14.895-10.519,22.395-15.797
	c0.652-0.466,1.008-0.598,1.13-0.632c0.144,0.065,0.513,0.298,1.095,0.877c0.541,0.55,0.674,0.76,0.691,0.831
	c-0.005,0.089-0.119,0.345-0.637,1.056c-3.123,4.269-6.221,8.565-9.299,12.844l-0.731,1.011c-6.863,9.497-13.959,19.316-21.336,28.8
	C142.027,125.466,131.07,137.025,118.705,147.93z"/>
<path fill="#4AA8D3" d="M91.946,138.747c-5.804,0-11.643,2.894-17.355,8.603c-8.25,8.27-11.492,30.813-12.504,40.118l-0.325,2.978
	l2.978-0.318c9.304-1,31.837-4.223,40.115-12.506c7.694-7.699,14.243-19.503,1.745-32.012
	C102.049,141.057,97.118,138.747,91.946,138.747z M101.45,174.211c-6.627,6.635-26.477,9.773-34.215,10.77
	c1.004-7.744,4.163-27.609,10.764-34.229c4.794-4.791,9.49-7.221,13.96-7.221h0.025c3.806,0,7.579,1.844,11.214,5.479
	C110.972,156.797,110.384,165.275,101.45,174.211z"/>
<polygon fill="#4AA8D3" points="23.855,22.261 23.855,224.55 111.227,224.55 111.227,219.55 28.855,219.55 28.855,27.261 
	221.145,27.261 221.145,219.55 138.773,219.55 138.773,224.55 226.145,224.55 226.145,22.261 "/>
<rect x="122.5" y="219.55" fill="#4AA8D3" width="5" height="5"/>
</svg>
