<?xml version="1.0" encoding="utf-8"?>
<!-- Generator: Adobe Illustrator 16.0.0, SVG Export Plug-In . SVG Version: 6.00 Build 0)  -->
<!DOCTYPE svg PUBLIC "-//W3C//DTD SVG 1.1//EN" "http://www.w3.org/Graphics/SVG/1.1/DTD/svg11.dtd">
<svg version="1.1" id="Layer_1" xmlns="http://www.w3.org/2000/svg" xmlns:xlink="http://www.w3.org/1999/xlink" x="0px" y="0px"
	 width="250px" height="250px" viewBox="0 0 250 250" enable-background="new 0 0 250 250" xml:space="preserve">
<path fill="#4AA8D3" d="M224.482,151.68c-8.938,36.041-36.772,64.496-72.64,74.262c-1.336,0.36-2.707-0.424-3.067-1.756
	c-0.362-1.332,0.423-2.707,1.754-3.067c34.117-9.288,60.597-36.356,69.103-70.642c12.943-52.181-18.978-105.164-71.155-118.106
	C123.2,26.1,96.995,30.047,74.685,43.488C52.378,56.927,36.639,78.25,30.369,103.527c-12.944,52.18,18.977,105.165,71.156,118.107
	c1.34,0.332,2.156,1.688,1.824,3.028c-0.282,1.138-1.303,1.896-2.424,1.896c-0.199,0-0.402-0.021-0.604-0.074
	c-54.856-13.606-88.413-69.309-74.805-124.164c6.592-26.573,23.138-48.988,46.589-63.117c23.452-14.13,51.002-18.281,77.575-11.688
	C204.534,41.124,238.093,96.823,224.482,151.68z M124.999,221.748c-2.209,0-4,1.791-4,4s1.791,4,4,4s4-1.791,4-4
	S127.208,221.748,124.999,221.748z"/>
<g>
	<polygon fill="none" points="84.504,99.242 84.504,92.731 84.504,86.222 71.483,86.222 71.483,99.242 77.994,99.242 	"/>
	<polygon fill="none" points="172.007,99.242 178.518,99.242 178.518,86.222 165.496,86.222 165.496,92.731 165.496,99.242 	"/>
	<polygon fill="none" points="77.994,158.726 71.483,158.726 71.483,171.746 84.504,171.746 84.504,165.236 84.504,158.726 	"/>
	<polygon fill="none" points="165.496,158.726 165.496,165.236 165.496,171.746 178.518,171.746 178.518,158.726 172.007,158.726 	
		"/>
	<path fill="none" d="M161.513,101.233v-6.51H88.487v6.51c0,1.1-0.892,1.992-1.992,1.992h-6.51v51.518h6.51
		c1.1,0,1.992,0.892,1.992,1.992v6.51h73.025v-6.51c0-1.101,0.892-1.992,1.992-1.992h6.51v-51.518h-6.51
		C162.404,103.225,161.513,102.333,161.513,101.233z M147.392,115.426l-22.57,27.881c-0.014,0.018-0.033,0.03-0.047,0.046
		c-0.015,0.019-0.026,0.038-0.041,0.055c-0.041,0.044-0.088,0.076-0.132,0.115c-0.048,0.045-0.097,0.092-0.15,0.131
		c-0.067,0.051-0.14,0.09-0.213,0.131c-0.051,0.028-0.1,0.061-0.152,0.084c-0.087,0.039-0.179,0.065-0.271,0.092
		c-0.043,0.012-0.084,0.03-0.127,0.039c-0.137,0.029-0.276,0.046-0.415,0.046c0,0,0,0-0.001,0c-0.116,0-0.231-0.012-0.346-0.032
		c-0.039-0.006-0.075-0.02-0.113-0.028c-0.075-0.019-0.151-0.036-0.224-0.063c-0.046-0.016-0.088-0.039-0.133-0.06
		c-0.064-0.028-0.128-0.058-0.19-0.095c-0.042-0.024-0.083-0.055-0.124-0.083c-0.041-0.028-0.083-0.051-0.123-0.082
		c-0.018-0.015-0.032-0.033-0.05-0.049c-0.016-0.015-0.035-0.025-0.052-0.039l-19.117-17.742c-0.806-0.749-0.853-2.008-0.104-2.814
		c0.746-0.806,2.008-0.855,2.814-0.104l17.554,16.291l21.23-26.225c0.69-0.854,1.944-0.986,2.801-0.294
		C147.952,113.316,148.083,114.571,147.392,115.426z"/>
	<path fill="#4AA8D3" d="M147.097,112.624c-0.856-0.691-2.11-0.56-2.801,0.294l-21.23,26.225l-17.554-16.291
		c-0.806-0.751-2.068-0.702-2.814,0.104c-0.749,0.807-0.702,2.066,0.104,2.814l19.117,17.742c0.017,0.014,0.036,0.024,0.052,0.039
		c0.018,0.016,0.032,0.034,0.05,0.049c0.039,0.031,0.082,0.054,0.123,0.082c0.042,0.028,0.082,0.059,0.124,0.083
		c0.062,0.037,0.126,0.066,0.19,0.095c0.045,0.021,0.087,0.044,0.133,0.06c0.073,0.027,0.148,0.045,0.224,0.063
		c0.038,0.009,0.074,0.022,0.113,0.028c0.115,0.021,0.23,0.032,0.346,0.032c0.001,0,0.001,0,0.001,0
		c0.139,0,0.278-0.017,0.415-0.046c0.043-0.009,0.084-0.027,0.127-0.039c0.091-0.026,0.183-0.053,0.271-0.092
		c0.052-0.023,0.101-0.056,0.152-0.084c0.073-0.041,0.146-0.08,0.213-0.131c0.053-0.039,0.102-0.086,0.15-0.131
		c0.044-0.039,0.092-0.071,0.132-0.115c0.015-0.017,0.026-0.036,0.041-0.055c0.015-0.016,0.033-0.028,0.047-0.046l22.57-27.881
		C148.083,114.571,147.952,113.316,147.097,112.624z"/>
	<path fill="#4AA8D3" d="M180.508,103.225c1.101,0,1.992-0.892,1.992-1.992V84.229c0-1.1-0.892-1.992-1.992-1.992h-17.003
		c-1.101,0-1.992,0.892-1.992,1.992v6.51H88.487v-6.51c0-1.1-0.892-1.992-1.992-1.992H69.492c-1.1,0-1.992,0.892-1.992,1.992v17.004
		c0,1.1,0.892,1.992,1.992,1.992h6.51v51.518h-6.51c-1.1,0-1.992,0.892-1.992,1.992v17.003c0,1.101,0.892,1.992,1.992,1.992h17.004
		c1.1,0,1.992-0.892,1.992-1.992v-6.511h73.025v6.511c0,1.101,0.892,1.992,1.992,1.992h17.003c1.101,0,1.992-0.892,1.992-1.992
		v-17.003c0-1.101-0.892-1.992-1.992-1.992h-6.51v-51.518H180.508z M165.496,86.222h13.021v13.021h-6.511h-6.511v-6.511V86.222z
		 M71.483,99.242V86.222h13.021v6.51v6.511h-6.511H71.483z M84.504,171.746H71.483v-13.021h6.511h6.511v6.511V171.746z
		 M178.518,158.726v13.021h-13.021v-6.51v-6.511h6.511H178.518z M170.015,154.743h-6.51c-1.101,0-1.992,0.892-1.992,1.992v6.51
		H88.487v-6.51c0-1.101-0.892-1.992-1.992-1.992h-6.51v-51.518h6.51c1.1,0,1.992-0.892,1.992-1.992v-6.51h73.025v6.51
		c0,1.1,0.892,1.992,1.992,1.992h6.51V154.743z"/>
</g>
</svg>
