<?xml version="1.0" encoding="utf-8"?>
<!-- Generator: Adobe Illustrator 16.0.0, SVG Export Plug-In . SVG Version: 6.00 Build 0)  -->
<!DOCTYPE svg PUBLIC "-//W3C//DTD SVG 1.1//EN" "http://www.w3.org/Graphics/SVG/1.1/DTD/svg11.dtd">
<svg version="1.1" id="Layer_1" xmlns="http://www.w3.org/2000/svg" xmlns:xlink="http://www.w3.org/1999/xlink" x="0px" y="0px"
	 width="250px" height="250px" viewBox="0 0 250 250" enable-background="new 0 0 250 250" xml:space="preserve">
<path fill="#4AA8D3" d="M224.482,151.68c-8.938,36.041-36.772,64.496-72.639,74.262c-1.336,0.36-2.707-0.424-3.068-1.756
	c-0.362-1.332,0.423-2.707,1.754-3.068c34.117-9.288,60.597-36.356,69.103-70.641c12.943-52.181-18.978-105.164-71.155-118.107
	c-25.277-6.27-51.482-2.323-73.792,11.118c-22.307,13.439-38.046,34.762-44.316,60.039c-12.944,52.18,18.977,105.164,71.156,118.107
	c1.34,0.332,2.156,1.688,1.824,3.028c-0.282,1.138-1.303,1.897-2.424,1.897c-0.199,0-0.402-0.022-0.604-0.074
	c-54.856-13.607-88.413-69.309-74.805-124.164c6.592-26.573,23.138-48.988,46.589-63.117c23.452-14.13,51.002-18.281,77.575-11.688
	C204.534,41.124,238.093,96.823,224.482,151.68z M124.999,221.748c-2.209,0-4,1.791-4,4s1.791,4,4,4s4-1.791,4-4
	S127.208,221.748,124.999,221.748z M124.177,68.123v59.259l47.943,34.831c0.215,0.156,0.358,0.391,0.399,0.654
	c0.041,0.262-0.023,0.529-0.182,0.744l-1.07,1.465c-12.084,16.631-29.342,25.424-49.902,25.424
	c-34.014,0-61.686-27.672-61.686-61.686c0-34.018,27.672-61.691,61.686-61.691h1.812C123.729,67.123,124.177,67.571,124.177,68.123z
	 M118.96,130.547c-0.259-0.188-0.412-0.488-0.412-0.809V72.817c-29.937,1.473-53.239,25.875-53.239,56
	c0,30.912,25.146,56.063,56.057,56.063c17.709,0,32.78-7.212,43.651-20.868L118.96,130.547z M129.223,124.917
	c-0.259-0.188-0.412-0.489-0.412-0.809V62.5c0-0.552,0.447-1,1-1h1.812c13.676,0,25.194,3.744,36.251,11.782
	c13.333,9.683,22.096,23.978,24.673,40.253c2.58,16.273-1.332,32.576-11.017,45.906l-1.065,1.469
	c-0.155,0.215-0.391,0.359-0.653,0.4c-0.052,0.008-0.104,0.012-0.156,0.012c-0.209,0-0.415-0.065-0.588-0.19L129.223,124.917z
	 M134.439,121.752l44.138,32.07c7.612-11.652,10.6-25.604,8.415-39.407c-2.342-14.79-10.305-27.781-22.426-36.582
	c-9.312-6.771-18.909-10.169-30.127-10.653V121.752z"/>
</svg>
