<?xml version="1.0" encoding="utf-8"?>
<!-- Generator: Adobe Illustrator 16.0.0, SVG Export Plug-In . SVG Version: 6.00 Build 0)  -->
<!DOCTYPE svg PUBLIC "-//W3C//DTD SVG 1.1//EN" "http://www.w3.org/Graphics/SVG/1.1/DTD/svg11.dtd">
<svg version="1.1" id="Layer_1" xmlns="http://www.w3.org/2000/svg" xmlns:xlink="http://www.w3.org/1999/xlink" x="0px" y="0px"
	 width="250px" height="250px" viewBox="0 0 250 250" enable-background="new 0 0 250 250" xml:space="preserve">
<path fill="#4AA8D3" d="M91.946,138.747c-5.804,0-11.643,2.894-17.355,8.603c-8.25,8.269-11.492,30.812-12.504,40.118l-0.325,2.978
	l2.978-0.319c9.304-1,31.837-4.222,40.115-12.506c7.694-7.699,14.243-19.503,1.745-32.011
	C102.049,141.057,97.118,138.747,91.946,138.747z M101.45,174.211c-6.627,6.635-26.477,9.773-34.215,10.77
	c1.004-7.744,4.163-27.61,10.764-34.229c4.794-4.791,9.49-7.221,13.96-7.221h0.025c3.806,0,7.579,1.844,11.214,5.479
	C110.972,156.797,110.384,165.275,101.45,174.211z M186.014,65.626c-2.048-2.046-3.479-2.309-4.498-2.309
	c-1.22,0-2.471,0.487-3.93,1.529l-0.154,0.108c-7.439,5.236-14.845,10.446-22.244,15.693
	c-20.586,14.648-39.351,31.076-55.774,48.832c-0.516,0.563-1.069,1.207-1.693,1.971l-1.743,2.14l2.36,1.438
	c9.525,5.8,11.354,7.63,17.789,17.813l1.422,2.23l2.09-1.62c0.386-0.3,0.747-0.603,1.141-0.933
	c13.047-11.391,24.589-23.502,34.307-35.997c7.303-9.382,14.414-19.218,21.291-28.73l0.887-1.222
	c2.938-4.085,6.073-8.44,9.279-12.818C188.771,70.693,188.616,68.264,186.014,65.626z M183.289,69.852
	c-0.005,0.089-0.119,0.345-0.637,1.056c-3.123,4.269-6.221,8.565-9.299,12.844l-0.731,1.011c-6.863,9.497-13.959,19.316-21.336,28.8
	c-9.259,11.903-20.216,23.462-32.581,34.367c-5.242-8.091-7.917-10.785-15.439-15.521c16.12-17.38,34.527-33.473,54.712-47.836
	c7.447-5.276,14.895-10.519,22.395-15.797c0.652-0.466,1.008-0.598,1.13-0.632c0.144,0.065,0.513,0.298,1.095,0.877
	C183.139,69.571,183.271,69.781,183.289,69.852z M100.925,226.559c-0.199,0-0.402-0.022-0.604-0.074
	c-54.856-13.607-88.413-69.309-74.805-124.164c6.592-26.573,23.138-48.988,46.589-63.117c23.452-14.13,51.002-18.281,77.575-11.688
	c54.854,13.608,88.413,69.308,74.805,124.164c-8.939,36.041-36.773,64.496-72.639,74.262c-1.337,0.36-2.707-0.424-3.068-1.756
	c-0.363-1.332,0.422-2.707,1.754-3.068c34.117-9.288,60.596-36.356,69.102-70.641c12.943-52.181-18.977-105.164-71.156-118.107
	c-25.276-6.27-51.481-2.323-73.791,11.118C52.379,56.926,36.64,78.249,30.37,103.526c-12.944,52.18,18.977,105.164,71.156,118.107
	c1.34,0.332,2.156,1.688,1.824,3.028C103.066,225.798,102.046,226.559,100.925,226.559z M128.999,225.748c0,2.209-1.791,4-4,4
	s-4-1.791-4-4s1.791-4,4-4S128.999,223.539,128.999,225.748z"/>
</svg>
