<?xml version="1.0" encoding="utf-8"?>
<!-- Generator: Adobe Illustrator 16.0.0, SVG Export Plug-In . SVG Version: 6.00 Build 0)  -->
<!DOCTYPE svg PUBLIC "-//W3C//DTD SVG 1.1//EN" "http://www.w3.org/Graphics/SVG/1.1/DTD/svg11.dtd">
<svg version="1.1" id="Layer_1" xmlns="http://www.w3.org/2000/svg" xmlns:xlink="http://www.w3.org/1999/xlink" x="0px" y="0px"
	 width="250px" height="250px" viewBox="0 0 250 250" enable-background="new 0 0 250 250" xml:space="preserve">
<g>
	<g>
		<path fill="#4AA8D3" d="M100.924,224.455c-0.199,0-0.402-0.023-0.604-0.074c-54.856-13.607-88.413-69.309-74.805-124.164
			C32.107,73.644,48.653,51.229,72.104,37.1c23.452-14.13,51.002-18.281,77.576-11.688c54.855,13.608,88.412,69.308,74.805,124.164
			c-8.94,36.041-36.774,64.496-72.641,74.261c-1.334,0.361-2.705-0.424-3.068-1.755c-0.362-1.332,0.425-2.707,1.757-3.068
			c34.116-9.289,60.595-36.356,69.1-70.642c12.945-52.18-18.976-105.163-71.155-118.107c-25.276-6.27-51.482-2.323-73.791,11.118
			C52.378,54.822,36.64,76.145,30.369,101.422c-12.944,52.18,18.976,105.163,71.156,118.107c1.34,0.332,2.157,1.688,1.824,3.027
			C103.066,223.693,102.046,224.455,100.924,224.455z"/>
	</g>
	<circle fill="#4AA8D3" cx="125" cy="223.645" r="4"/>
</g>
<g>
	<path fill="#4AA8D3" d="M98.297,136.154c0-1.543-0.257-2.959-0.771-4.25c-0.514-1.285-1.25-2.404-2.21-3.363
		c-0.959-0.961-2.119-1.697-3.472-2.211c-1.359-0.52-2.856-0.777-4.495-0.777v-4.278c1.639,0,3.136-0.256,4.495-0.771
		c1.354-0.514,2.513-1.251,3.472-2.21c0.959-0.96,1.696-2.085,2.21-3.37c0.514-1.285,0.771-2.701,0.771-4.25
		c0-2.57-0.223-5.072-0.668-7.51c-0.445-2.428-0.925-4.861-1.439-7.294c-0.514-2.433-0.993-4.877-1.433-7.339
		c-0.446-2.456-0.668-4.992-0.668-7.613c0-2.851,0.445-5.495,1.331-7.929c0.891-2.432,2.176-4.552,3.861-6.351
		c1.685-1.805,3.758-3.205,6.214-4.215c2.456-1.005,5.226-1.508,8.316-1.508h3.861v2.948c0,0.513-0.2,0.913-0.6,1.193
		c-0.4,0.28-0.783,0.423-1.16,0.423h-2.313c-2.011,0-3.85,0.348-5.512,1.051c-1.663,0.702-3.084,1.708-4.278,3.021
		c-1.194,1.308-2.131,2.901-2.811,4.769c-0.68,1.873-1.016,3.953-1.016,6.249c0,2.668,0.21,5.26,0.633,7.79
		c0.417,2.525,0.886,5.016,1.4,7.472c0.513,2.456,0.982,4.917,1.404,7.374c0.423,2.456,0.634,4.923,0.634,7.402
		c0,1.73-0.297,3.324-0.88,4.775c-0.582,1.451-1.359,2.713-2.313,3.787c-0.959,1.08-2.062,1.976-3.301,2.703
		c-1.239,0.725-2.536,1.25-3.895,1.582c1.359,0.28,2.656,0.782,3.895,1.508c1.24,0.724,2.342,1.638,3.301,2.736
		c0.954,1.102,1.731,2.364,2.313,3.791c0.583,1.429,0.88,3.006,0.88,4.735c0,2.479-0.211,4.945-0.634,7.407
		c-0.422,2.456-0.891,4.925-1.404,7.403c-0.514,2.479-0.983,4.98-1.4,7.511c-0.423,2.524-0.633,5.101-0.633,7.716
		c0,2.297,0.336,4.375,1.016,6.25c0.68,1.873,1.617,3.459,2.811,4.773c1.193,1.309,2.615,2.313,4.278,3.017
		c1.662,0.702,3.501,1.052,5.512,1.052h2.313c0.377,0,0.76,0.143,1.16,0.422c0.4,0.279,0.6,0.681,0.6,1.193v2.947h-3.861
		c-3.09,0-5.86-0.502-8.316-1.508s-4.529-2.411-6.214-4.21c-1.686-1.806-2.97-3.923-3.861-6.356
		c-0.885-2.434-1.331-5.072-1.331-7.928c0-2.623,0.223-5.158,0.668-7.613c0.439-2.457,0.919-4.902,1.433-7.335
		s0.994-4.866,1.439-7.299C98.075,141.23,98.297,138.725,98.297,136.154z"/>
	<path fill="#4AA8D3" d="M151.775,136.154c0,2.57,0.223,5.076,0.662,7.511c0.446,2.433,0.926,4.866,1.438,7.299
		c0.515,2.433,0.994,4.878,1.44,7.335c0.445,2.455,0.668,4.99,0.668,7.613c0,2.855-0.445,5.494-1.332,7.928
		c-0.891,2.434-2.176,4.553-3.86,6.355c-1.685,1.8-3.758,3.205-6.213,4.211c-2.457,1.006-5.228,1.508-8.317,1.508H132.4v-2.947
		c0-0.514,0.189-0.914,0.566-1.193c0.37-0.279,0.771-0.422,1.188-0.422h2.318c2.012,0,3.851-0.35,5.512-1.052
		c1.656-0.704,3.084-1.708,4.277-3.017c1.193-1.314,2.131-2.9,2.812-4.774c0.674-1.874,1.017-3.952,1.017-6.249
		c0-2.615-0.211-5.191-0.634-7.716c-0.423-2.53-0.886-5.032-1.405-7.511c-0.515-2.479-0.98-4.947-1.398-7.403
		c-0.422-2.462-0.635-4.929-0.635-7.407c0-1.729,0.28-3.308,0.846-4.736c0.561-1.426,1.32-2.688,2.279-3.791
		c0.959-1.098,2.057-2.012,3.295-2.735c1.239-0.727,2.543-1.229,3.896-1.508c-1.354-0.332-2.656-0.857-3.896-1.582
		c-1.238-0.727-2.336-1.623-3.295-2.703c-0.959-1.073-1.72-2.336-2.279-3.787c-0.564-1.451-0.846-3.045-0.846-4.775
		c0-2.479,0.213-4.946,0.635-7.402c0.418-2.457,0.885-4.917,1.398-7.374c0.52-2.456,0.982-4.946,1.405-7.472
		c0.423-2.53,0.634-5.122,0.634-7.79c0-2.296-0.343-4.375-1.017-6.249c-0.681-1.868-1.617-3.461-2.812-4.769
		c-1.193-1.314-2.621-2.319-4.277-3.021c-1.661-0.704-3.5-1.051-5.512-1.051h-2.318c-0.418,0-0.817-0.143-1.188-0.423
		c-0.377-0.28-0.566-0.68-0.566-1.193v-2.948h3.861c3.09,0,5.86,0.503,8.317,1.508c2.455,1.011,4.528,2.41,6.213,4.215
		c1.687,1.799,2.972,3.918,3.86,6.351c0.887,2.434,1.332,5.078,1.332,7.929c0,2.621-0.224,5.157-0.668,7.613
		c-0.446,2.462-0.926,4.906-1.44,7.339c-0.513,2.433-0.992,4.867-1.438,7.294c-0.439,2.438-0.662,4.94-0.662,7.51
		c0,1.548,0.258,2.965,0.771,4.25c0.515,1.285,1.25,2.41,2.211,3.37c0.959,0.959,2.106,1.696,3.438,2.21
		c1.337,0.514,2.822,0.771,4.455,0.771v4.278c-1.633,0-3.118,0.258-4.455,0.777c-1.33,0.514-2.479,1.25-3.438,2.211
		c-0.961,0.959-1.696,2.078-2.211,3.363C152.033,133.195,151.775,134.611,151.775,136.154z"/>
</g>
</svg>
