<?xml version="1.0" encoding="utf-8"?>
<!-- Generator: Adobe Illustrator 16.0.0, SVG Export Plug-In . SVG Version: 6.00 Build 0)  -->
<!DOCTYPE svg PUBLIC "-//W3C//DTD SVG 1.1//EN" "http://www.w3.org/Graphics/SVG/1.1/DTD/svg11.dtd">
<svg version="1.1" id="Layer_1" xmlns="http://www.w3.org/2000/svg" xmlns:xlink="http://www.w3.org/1999/xlink" x="0px" y="0px"
	 width="250px" height="250px" viewBox="0 0 250 250" enable-background="new 0 0 250 250" xml:space="preserve">
<path fill="#4AA8D3" d="M224.482,151.68c-8.938,36.041-36.772,64.496-72.64,74.262c-1.336,0.36-2.707-0.424-3.067-1.756
	c-0.362-1.332,0.423-2.707,1.754-3.067c34.117-9.288,60.597-36.356,69.103-70.642c12.943-52.181-18.978-105.164-71.155-118.106
	C123.2,26.1,96.995,30.047,74.685,43.488C52.378,56.927,36.639,78.25,30.369,103.527c-12.944,52.18,18.977,105.165,71.156,118.107
	c1.34,0.332,2.156,1.688,1.824,3.028c-0.282,1.138-1.303,1.896-2.424,1.896c-0.199,0-0.402-0.021-0.604-0.074
	c-54.856-13.606-88.413-69.309-74.805-124.164c6.592-26.573,23.138-48.988,46.589-63.117c23.452-14.13,51.002-18.281,77.575-11.688
	C204.534,41.124,238.093,96.823,224.482,151.68z M124.999,221.748c-2.209,0-4,1.791-4,4s1.791,4,4,4s4-1.791,4-4
	S127.208,221.748,124.999,221.748z"/>
<g>
	<rect x="168.813" y="150.436" fill="none" width="14.803" height="14.803"/>
	<rect x="66.441" y="149.684" fill="none" width="14.803" height="14.803"/>
	<polygon fill="none" points="132.054,88.968 117.25,88.968 117.25,95.174 117.25,98.938 117.25,103.771 132.054,103.771 
		132.054,98.938 132.054,95.174 	"/>
	<path fill="#4AA8D3" d="M187.5,100.91v-7.709h-7.709v1.973h-43.975v-9.969h-22.33v9.969H70.21v-1.973H62.5v7.709h7.71v-1.973
		h33.073c-18.492,8.048-31.11,26.099-31.785,46.982h-8.82v22.33h22.33v-22.33h-9.746c0.781-22.475,16.449-41.398,38.225-46.394
		v8.009h22.33v-8.008c21.935,5.063,37.781,24.56,38.241,47.145h-9.009v22.33h22.33v-22.33h-9.558
		c-0.398-21.006-13.162-39.545-31.847-47.734h33.816v1.973H187.5z M81.244,149.684v14.803H66.441v-14.803H81.244z M183.615,165.238
		h-14.803v-14.803h14.803V165.238z M132.054,103.771H117.25v-4.834v-3.764v-6.206h14.804v6.206v3.764V103.771z"/>
</g>
</svg>
