<?xml version="1.0" encoding="utf-8"?>
<!-- Generator: Adobe Illustrator 16.0.0, SVG Export Plug-In . SVG Version: 6.00 Build 0)  -->
<!DOCTYPE svg PUBLIC "-//W3C//DTD SVG 1.1//EN" "http://www.w3.org/Graphics/SVG/1.1/DTD/svg11.dtd">
<svg version="1.1" id="Layer_1" xmlns="http://www.w3.org/2000/svg" xmlns:xlink="http://www.w3.org/1999/xlink" x="0px" y="0px"
	 width="74.875px" height="50px" viewBox="0 0 74.875 50" enable-background="new 0 0 74.875 50" xml:space="preserve">
<path fill="#21252B" d="M12.759,44.861c-0.028-0.002-0.055-0.008-0.082-0.012c-0.358-0.072-0.613-0.408-0.578-0.783
	c0.038-0.401,0.394-0.696,0.795-0.659c10.654,0.985,20.125-6.878,21.111-17.532c0.336-3.632-0.358-7.18-1.883-10.306
	c0.205,1.397,0.173,2.852-0.131,4.313c-1.39,6.705-7.953,11.015-14.658,9.623c-6.706-1.39-11.014-7.953-9.623-14.658
	C9.1,8.143,15.663,3.834,22.367,5.225c0.003,0,0.006,0.002,0.01,0.002c1.655,0.345,3.164,1.005,4.477,1.905
	c0.374,0.256,0.73,0.532,1.072,0.825c5.259,4.319,8.184,11.041,7.534,18.054C34.398,37.467,24.215,45.923,12.759,44.861z
	 M67.359,26.011c0.648-7.014-2.275-13.735-7.535-18.054c-0.34-0.292-0.696-0.568-1.07-0.825c-1.313-0.9-2.82-1.56-4.479-1.905
	c-0.002,0-0.006-0.002-0.01-0.002C47.563,3.834,41,8.143,39.609,14.848c-1.391,6.705,2.918,13.268,9.623,14.658
	c6.705,1.391,13.268-2.918,14.658-9.623c0.305-1.461,0.336-2.916,0.131-4.313c1.525,3.126,2.221,6.674,1.883,10.306
	C64.918,36.53,55.448,44.395,44.795,43.408c-0.402-0.037-0.758,0.258-0.795,0.658c-0.035,0.377,0.221,0.711,0.579,0.783
	c0.026,0.006,0.054,0.01,0.081,0.012C56.113,45.923,66.299,37.467,67.359,26.011z"/>
</svg>
