<?xml version="1.0" encoding="utf-8"?>
<!-- Generator: Adobe Illustrator 16.0.0, SVG Export Plug-In . SVG Version: 6.00 Build 0)  -->
<!DOCTYPE svg PUBLIC "-//W3C//DTD SVG 1.1//EN" "http://www.w3.org/Graphics/SVG/1.1/DTD/svg11.dtd">
<svg version="1.1" id="Layer_1" xmlns="http://www.w3.org/2000/svg" xmlns:xlink="http://www.w3.org/1999/xlink" x="0px" y="0px"
	 width="100px" height="100px" viewBox="0 0 100 100" enable-background="new 0 0 100 100" xml:space="preserve">
<path fill="#62C3A6" d="M34.407,46.713l-0.095-3.558c1.705-0.578,3.288-1.447,4.699-2.586l2.962,1.973
	c0.067,0.045,0.147,0.081,0.2,0.093c0.32,0.126,0.644,0.043,0.859-0.228l2.586-3.234c0.258-0.322,0.214-0.76-0.104-1.062
	c-0.856-0.819-1.714-1.636-2.575-2.455c0.8-1.626,1.299-3.361,1.488-5.153l3.498-0.692c0.428-0.094,0.697-0.439,0.649-0.839
	l-0.182-1.622c-0.095-0.835-0.19-1.669-0.283-2.506c-0.046-0.397-0.396-0.68-0.822-0.674c-1.187,0.03-2.374,0.058-3.556,0.086
	c-0.575-1.704-1.443-3.281-2.587-4.695c0.482-0.729,0.969-1.461,1.458-2.191l0.516-0.772c0.241-0.357,0.186-0.801-0.134-1.056
	l-3.231-2.584c-0.321-0.256-0.766-0.212-1.06,0.1l-0.641,0.675c-0.605,0.637-1.211,1.274-1.818,1.903
	c-1.629-0.804-3.359-1.304-5.148-1.489l-0.697-3.489c-0.088-0.414-0.439-0.692-0.842-0.655l-4.123,0.459
	c-0.402,0.037-0.682,0.375-0.678,0.822c0.023,1.04,0.052,2.087,0.08,3.133l0.011,0.422c-1.709,0.582-3.288,1.451-4.696,2.589
	c-0.992-0.662-1.977-1.319-2.962-1.973c-0.365-0.244-0.801-0.189-1.059,0.133l-2.586,3.235c-0.257,0.321-0.215,0.759,0.103,1.063
	l2.577,2.455c-0.798,1.625-1.302,3.357-1.491,5.151l-0.917,0.18c-0.858,0.169-1.718,0.341-2.575,0.515
	c-0.435,0.092-0.703,0.439-0.652,0.838l0.157,1.383c0.102,0.913,0.205,1.828,0.305,2.746c0.05,0.397,0.396,0.678,0.826,0.675
	l3.558-0.09c0.574,1.706,1.441,3.283,2.586,4.693c-0.475,0.724-0.957,1.444-1.437,2.162l-0.537,0.803
	c-0.243,0.359-0.188,0.805,0.132,1.062l3.232,2.584c0.318,0.254,0.767,0.211,1.06-0.103l0.668-0.703
	c0.593-0.627,1.189-1.255,1.791-1.878c1.629,0.807,3.362,1.307,5.146,1.488c0.234,1.164,0.468,2.327,0.7,3.495
	c0.042,0.203,0.148,0.378,0.295,0.497c0.154,0.124,0.341,0.177,0.542,0.156c0.823-0.097,1.646-0.188,2.471-0.275l1.658-0.182
	C34.13,47.497,34.41,47.159,34.407,46.713z M32.773,42.667l0.015,0.518c0.026,0.971,0.051,1.94,0.069,2.904
	c-0.554,0.065-1.115,0.129-1.673,0.191l-1.052,0.123c-0.227-1.125-0.449-2.249-0.669-3.365c-0.068-0.355-0.357-0.634-0.665-0.65
	c-2.028-0.149-3.953-0.711-5.725-1.664c-0.271-0.148-0.62-0.071-0.903,0.202l-2.357,2.489l-2.153-1.721l1.911-2.855
	c0.204-0.327,0.199-0.688-0.004-0.918c-1.322-1.521-2.293-3.275-2.88-5.215c-0.087-0.302-0.421-0.52-0.781-0.508
	c-1.138,0.031-2.286,0.06-3.43,0.083l-0.12-1.088c-0.058-0.544-0.12-1.093-0.177-1.638c0.852-0.174,1.706-0.344,2.561-0.514
	l0.802-0.157c0.307-0.067,0.624-0.299,0.647-0.666c0.139-2.011,0.697-3.937,1.662-5.716c0.176-0.327,0.024-0.69-0.204-0.909
	l-0.636-0.603c-0.617-0.584-1.238-1.174-1.853-1.76l1.716-2.147c0.952,0.632,1.903,1.271,2.854,1.908
	c0.261,0.174,0.65,0.243,0.929-0.001c1.524-1.333,3.277-2.303,5.213-2.881c0.307-0.087,0.506-0.395,0.506-0.781l-0.022-0.814
	c-0.024-0.87-0.045-1.743-0.064-2.61c0.495-0.058,0.992-0.114,1.492-0.17c0.411-0.048,0.824-0.091,1.232-0.14
	c0.229,1.123,0.454,2.248,0.674,3.364c0.068,0.354,0.356,0.634,0.662,0.651c2.03,0.148,3.958,0.707,5.726,1.662
	c0.327,0.182,0.68,0.018,0.902-0.201l2.357-2.487l2.153,1.721l-1.912,2.854c-0.16,0.257-0.243,0.636,0.003,0.914
	c1.32,1.514,2.289,3.271,2.884,5.217c0.089,0.305,0.422,0.52,0.783,0.508c1.137-0.031,2.282-0.061,3.427-0.084l0.126,1.141
	c0.057,0.527,0.115,1.058,0.17,1.584c-0.944,0.193-1.895,0.382-2.847,0.57l-0.514,0.101c-0.308,0.07-0.626,0.303-0.645,0.667
	c-0.139,2.009-0.699,3.932-1.668,5.719c-0.172,0.328-0.018,0.691,0.208,0.907l0.528,0.501c0.656,0.62,1.31,1.24,1.96,1.863
	l-1.716,2.146c-0.71-0.474-1.419-0.947-2.126-1.421l-0.727-0.487c-0.317-0.211-0.684-0.213-0.933,0
	c-1.528,1.334-3.281,2.306-5.208,2.88C32.929,41.989,32.772,42.349,32.773,42.667z M36.085,22.169
	c-2.262-2.211-5.688-3.091-8.916-2.294c-3.38,0.827-6.066,3.671-6.845,7.243c-0.728,3.354,0.588,6.985,3.358,9.249l0.002,0.001
	l0.001,0c2.563,2.006,5.942,2.575,9.032,1.526c3.049-1.025,5.388-3.714,6.107-7.016C39.492,27.817,38.443,24.481,36.085,22.169z
	 M35.099,34.661c-2.701,2.756-7.3,2.982-10.459,0.52c-2.553-2.09-3.577-5.458-2.617-8.578c0.964-3.065,3.83-5.284,7.129-5.509
	c1.894-0.123,3.786,0.486,5.333,1.723c1.027,0.821,1.841,1.879,2.363,3.06C38.116,28.776,37.417,32.306,35.099,34.661z
	 M87.389,50.001c-0.148-0.457-0.606-0.629-1.044-0.524c-1.835,0.441-3.676,0.884-5.515,1.322c-1.446-2.493-3.334-4.67-5.594-6.454
	c0.694-1.758,1.393-3.516,2.091-5.273c0.163-0.416,0.057-0.895-0.37-1.107c-1.885-0.943-3.765-1.884-5.651-2.828
	c-0.427-0.214-0.872-0.013-1.108,0.368c-0.986,1.611-1.978,3.224-2.964,4.835c-2.785-0.739-5.659-0.942-8.521-0.608
	c-0.749-1.734-1.5-3.471-2.249-5.207c-0.178-0.411-0.591-0.676-1.044-0.522c-1.997,0.667-3.995,1.331-5.993,1.997
	c-0.457,0.149-0.629,0.607-0.523,1.044c0.44,1.837,0.881,3.677,1.322,5.518c-2.492,1.444-4.673,3.33-6.455,5.593
	c-1.759-0.698-3.518-1.395-5.273-2.093c-0.416-0.164-0.895-0.06-1.109,0.373c-0.941,1.881-1.884,3.761-2.826,5.646
	c-0.214,0.427-0.014,0.871,0.37,1.11c1.61,0.984,3.222,1.973,4.834,2.967c-0.739,2.782-0.945,5.656-0.606,8.519
	c-1.74,0.75-3.475,1.498-5.209,2.246c-0.412,0.181-0.677,0.592-0.523,1.047c0.664,1.996,1.33,3.996,1.996,5.993
	c0.149,0.454,0.607,0.628,1.043,0.522c1.839-0.441,3.68-0.882,5.517-1.324c1.447,2.493,3.33,4.673,5.591,6.456
	c-0.696,1.758-1.392,3.516-2.088,5.273c-0.164,0.42-0.06,0.896,0.368,1.109c1.884,0.943,3.766,1.883,5.648,2.825
	c0.428,0.217,0.874,0.014,1.108-0.369c0.986-1.615,1.974-3.224,2.97-4.831c2.781,0.737,5.658,0.939,8.517,0.602
	c0.749,1.74,1.501,3.477,2.249,5.211c0.18,0.411,0.593,0.672,1.044,0.521c1.998-0.664,3.995-1.33,5.995-1.991
	c0.452-0.151,0.625-0.609,0.521-1.047c-0.442-1.842-0.879-3.678-1.322-5.516c2.493-1.445,4.669-3.334,6.454-5.595
	c1.762,0.697,3.517,1.395,5.273,2.091c0.091,0.035,0.182,0.051,0.268,0.058c0.316,0.058,0.655-0.053,0.844-0.428
	c0.941-1.881,1.882-3.764,2.823-5.647c0.216-0.429,0.013-0.872-0.369-1.11c-1.615-0.987-3.222-1.976-4.835-2.965
	c0.74-2.785,0.943-5.659,0.607-8.521c1.74-0.749,3.47-1.5,5.208-2.25c0.412-0.176,0.673-0.59,0.522-1.042
	C88.72,53.997,88.054,51.996,87.389,50.001z M82.498,57.992c-0.322,0.141-0.62,0.453-0.562,0.837
	c0.438,3.105,0.221,6.181-0.658,9.194c-0.109,0.369,0.146,0.717,0.442,0.899c1.57,0.965,3.146,1.931,4.715,2.895
	c-0.716,1.435-1.433,2.866-2.15,4.297c-1.713-0.68-3.429-1.36-5.143-2.04c-0.325-0.129-0.752-0.125-0.986,0.183
	c-1.884,2.511-4.216,4.53-6.966,6.041c-0.343,0.189-0.412,0.609-0.332,0.953c0.432,1.794,0.861,3.589,1.292,5.382
	c-1.521,0.506-3.041,1.012-4.562,1.522c-0.73-1.699-1.463-3.389-2.196-5.084c-0.141-0.323-0.45-0.62-0.835-0.565
	c-3.109,0.44-6.184,0.219-9.195-0.659c-0.368-0.104-0.718,0.146-0.896,0.445c-0.967,1.571-1.932,3.146-2.897,4.717
	c-1.431-0.716-2.865-1.435-4.297-2.151c0.681-1.711,1.36-3.43,2.04-5.143c0.128-0.32,0.12-0.753-0.187-0.987
	c-2.508-1.884-4.528-4.213-6.037-6.963c-0.185-0.343-0.609-0.412-0.952-0.331c-1.794,0.428-3.588,0.858-5.384,1.288
	c-0.505-1.521-1.012-3.038-1.518-4.561c1.694-0.731,3.388-1.464,5.083-2.19c0.323-0.143,0.617-0.452,0.563-0.839
	c-0.442-3.109-0.221-6.184,0.656-9.196c0.107-0.371-0.146-0.717-0.44-0.899c-1.574-0.963-3.146-1.927-4.719-2.894
	c0.717-1.432,1.438-2.866,2.151-4.298c1.715,0.681,3.432,1.362,5.146,2.043c0.318,0.125,0.753,0.12,0.983-0.188
	c1.884-2.508,4.216-4.527,6.965-6.037c0.345-0.188,0.416-0.608,0.335-0.952c-0.435-1.795-0.864-3.59-1.292-5.384
	c1.517-0.506,3.04-1.014,4.557-1.516c0.733,1.69,1.463,3.384,2.198,5.081c0.141,0.323,0.449,0.617,0.834,0.561
	c3.107-0.44,6.183-0.221,9.195,0.661c0.373,0.106,0.719-0.147,0.898-0.444c0.965-1.573,1.931-3.145,2.896-4.717
	c1.433,0.717,2.866,1.434,4.297,2.15c-0.679,1.715-1.36,3.429-2.038,5.145c-0.127,0.32-0.125,0.752,0.182,0.985
	c2.509,1.883,4.531,4.215,6.04,6.964c0.188,0.344,0.609,0.413,0.954,0.333c1.794-0.429,3.588-0.859,5.382-1.289
	c0.507,1.519,1.013,3.039,1.521,4.559C85.884,56.53,84.193,57.262,82.498,57.992z M68.758,50.016
	c-4.123-2.62-9.367-2.653-13.693-0.558c-4.789,2.313-7.683,7.43-7.702,12.667c-0.018,5.24,3.164,10.046,7.761,12.415
	c4.383,2.131,9.449,1.9,13.633-0.593c4.22-2.511,6.681-7.26,6.7-12.111C75.467,57.014,72.772,52.567,68.758,50.016z M71.731,68.847
	c-3.342,5.252-10.396,6.878-15.868,4.215c-4.535-2.334-7.267-7.176-6.797-12.278c0.474-5.137,4.208-9.368,9.109-10.767
	c4.955-1.418,10.369,0.664,13.344,4.794C74.522,58.982,74.451,64.572,71.731,68.847z"/>
</svg>
