<?xml version="1.0" encoding="utf-8"?>
<!-- Generator: Adobe Illustrator 16.0.0, SVG Export Plug-In . SVG Version: 6.00 Build 0)  -->
<!DOCTYPE svg PUBLIC "-//W3C//DTD SVG 1.1//EN" "http://www.w3.org/Graphics/SVG/1.1/DTD/svg11.dtd">
<svg version="1.1" id="Layer_1" xmlns="http://www.w3.org/2000/svg" xmlns:xlink="http://www.w3.org/1999/xlink" x="0px" y="0px"
	 width="200px" height="200px" viewBox="0 0 200 200" enable-background="new 0 0 200 200" xml:space="preserve">
<g>
	<circle fill="#AEA9D3" cx="100" cy="188.167" r="3.508"/>
	<path fill="#AEA9D3" d="M121.669,14.356C98.336,8.575,74.15,12.214,53.56,24.604C32.972,36.992,18.446,56.646,12.658,79.946
		c-11.948,48.097,17.514,96.936,65.675,108.87c0.177,0.041,0.355,0.063,0.53,0.063c0.985,0,1.88-0.666,2.128-1.662
		c0.293-1.177-0.425-2.365-1.6-2.655C33.578,173.209,5.554,126.753,16.918,81.002c5.505-22.164,19.323-40.86,38.91-52.642
		c19.584-11.784,42.592-15.246,64.785-9.748c45.81,11.349,73.834,57.807,62.469,103.557c-7.465,30.061-30.713,53.796-60.667,61.939
		c-1.169,0.317-1.858,1.524-1.542,2.69c0.318,1.167,1.525,1.854,2.697,1.539c31.486-8.562,55.923-33.513,63.771-65.115
		C199.29,75.126,169.829,26.288,121.669,14.356z"/>
</g>
<path fill="#AEA9D3" d="M157.587,99.517h-55.684V43.833c0-1.192-0.966-2.158-2.158-2.158s-2.158,0.966-2.158,2.158v55.684H41.903
	c-1.192,0-2.158,0.966-2.158,2.158c0,1.192,0.966,2.158,2.158,2.158h55.684v55.684c0,1.192,0.966,2.158,2.158,2.158
	s2.158-0.966,2.158-2.158v-55.684h55.684c1.192,0,2.158-0.966,2.158-2.158C159.745,100.483,158.779,99.517,157.587,99.517z"/>
</svg>
