<?xml version="1.0" encoding="utf-8"?>
<!-- Generator: Adobe Illustrator 16.0.0, SVG Export Plug-In . SVG Version: 6.00 Build 0)  -->
<!DOCTYPE svg PUBLIC "-//W3C//DTD SVG 1.1//EN" "http://www.w3.org/Graphics/SVG/1.1/DTD/svg11.dtd">
<svg version="1.1" id="Layer_1" xmlns="http://www.w3.org/2000/svg" xmlns:xlink="http://www.w3.org/1999/xlink" x="0px" y="0px"
	 width="100px" height="100px" viewBox="0 0 100 100" enable-background="new 0 0 100 100" xml:space="preserve">
<path fill="#62C3A6" d="M87.07,55.797C88.511,53.839,90,51.815,90,50c0-1.816-1.489-3.841-2.949-5.825
	c-0.95-1.287-1.931-2.624-2.17-3.521c-0.245-0.904-0.06-2.557,0.123-4.177c0.267-2.413,0.541-4.908-0.363-6.478
	c-0.908-1.57-3.205-2.576-5.447-3.56c-1.475-0.645-2.998-1.312-3.664-1.975c-0.64-0.64-1.284-2.146-1.914-3.615
	c-0.984-2.298-1.999-4.67-3.667-5.517c-0.693-0.353-1.568-0.518-2.753-0.518c-1.05,0-2.22,0.132-3.359,0.263
	c-0.926,0.102-2.106,0.223-3.04,0.223c-0.618,0-1.079-0.053-1.371-0.156c-0.855-0.303-2.052-1.167-3.319-2.088
	C54.033,11.555,51.89,10,50,10c-1.814,0-3.839,1.49-5.81,2.94c-1.298,0.953-2.635,1.941-3.54,2.18
	c-0.729,0.195-2.607,0.057-4.178-0.124c-1.157-0.125-2.353-0.259-3.442-0.259c-1.332,0-2.295,0.198-3.028,0.62
	c-1.577,0.908-2.587,3.215-3.566,5.45c-0.643,1.472-1.308,2.998-1.971,3.658c-0.664,0.668-2.256,1.362-3.661,1.978
	c-2.23,0.976-4.538,1.982-5.447,3.557c-0.906,1.57-0.627,4.065-0.357,6.498c0.177,1.601,0.362,3.254,0.121,4.158
	c-0.242,0.904-1.229,2.246-2.185,3.54c-1.445,1.959-2.935,3.988-2.935,5.806c0,1.89,1.555,4.034,3.065,6.117
	c0.914,1.266,1.779,2.458,2.08,3.311c0.312,0.885,0.104,2.619-0.101,4.317c-0.28,2.322-0.57,4.726,0.311,6.253
	c0.909,1.572,3.209,2.583,5.45,3.562c1.399,0.612,2.989,1.305,3.658,1.977c0.676,0.669,1.362,2.206,2.026,3.704
	c0.969,2.177,1.969,4.429,3.47,5.377c0.776,0.492,1.829,0.724,3.312,0.724c1.193,0,2.539-0.15,3.615-0.273l0.236-0.025
	c1.462-0.158,2.836-0.284,3.617-0.143c0.935,0.171,2.404,1.273,3.7,2.244C46.306,88.55,48.236,90,50,90
	c1.815,0,3.844-1.492,5.808-2.94c1.297-0.953,2.636-1.939,3.538-2.18c0.73-0.197,2.617-0.055,4.16,0.12l0.089,0.009
	c1.137,0.127,2.306,0.255,3.371,0.255c1.33,0,2.294-0.2,3.035-0.625c1.575-0.906,2.581-3.214,3.564-5.464
	c0.645-1.469,1.31-2.984,1.964-3.639c0.656-0.653,2.23-1.331,3.627-1.932c2.283-0.979,4.645-1.997,5.507-3.646
	c0.823-1.563,0.568-4.006,0.317-6.392c-0.164-1.546-0.35-3.297-0.1-4.222C85.12,58.447,86.101,57.112,87.07,55.797z M82.756,58.778
	c-0.352,1.317-0.16,3.114,0.039,5.028c0.195,1.848,0.438,4.152-0.076,5.133c-0.504,0.959-2.676,1.895-4.434,2.652
	c-1.73,0.742-3.359,1.444-4.305,2.388c-0.956,0.955-1.675,2.596-2.436,4.341c-0.754,1.724-1.697,3.872-2.641,4.419
	c-0.264,0.151-0.813,0.331-1.938,0.331c-0.944,0-2.056-0.124-3.13-0.239l-0.088-0.011c-1.043-0.119-2.246-0.237-3.255-0.237
	c-0.71,0-1.273,0.058-1.716,0.173c-1.302,0.352-2.747,1.414-4.281,2.544c-1.516,1.117-3.405,2.505-4.496,2.505
	c-1.03,0-2.81-1.341-4.242-2.414c-1.638-1.231-3.182-2.394-4.627-2.653c-0.366-0.065-0.785-0.097-1.282-0.097
	c-0.919,0-1.958,0.11-3.059,0.229l-0.139,0.014c-1.097,0.124-2.332,0.26-3.379,0.26c-1.268,0-1.861-0.206-2.137-0.383
	c-0.938-0.591-1.88-2.711-2.641-4.417c-0.778-1.748-1.516-3.401-2.474-4.362c-0.951-0.952-2.581-1.666-4.351-2.44
	c-1.723-0.754-3.866-1.691-4.41-2.64c-0.516-0.891-0.25-3.109-0.035-4.894c0.246-2.025,0.476-3.938-0.01-5.314
	c-0.408-1.152-1.365-2.473-2.391-3.891c-1.172-1.618-2.63-3.631-2.63-4.802c0-1.093,1.39-2.98,2.511-4.503
	c1.125-1.527,2.185-2.97,2.535-4.274c0.349-1.298,0.148-3.071-0.062-4.971c-0.21-1.875-0.467-4.205,0.081-5.156
	c0.544-0.944,2.685-1.882,4.449-2.657c1.73-0.754,3.36-1.47,4.312-2.419c0.949-0.952,1.669-2.589,2.429-4.333
	c0.756-1.727,1.694-3.876,2.646-4.425c0.234-0.135,0.77-0.296,1.984-0.296c0.816,0,1.854,0.069,3.169,0.217
	c1.101,0.122,2.255,0.237,3.25,0.237c0.716,0,1.277-0.059,1.722-0.178c1.294-0.347,2.728-1.399,4.274-2.535
	c1.515-1.12,3.405-2.512,4.504-2.512c1.181,0,3.195,1.465,4.836,2.656c1.395,1.009,2.709,1.959,3.86,2.367
	c0.519,0.183,1.223,0.271,2.144,0.271c1.075,0,2.295-0.124,3.24-0.232c1.32-0.15,2.303-0.218,3.096-0.218
	c0.854,0,1.454,0.083,1.775,0.248c0.957,0.489,1.89,2.668,2.646,4.428c0.737,1.729,1.438,3.36,2.383,4.305
	c0.955,0.955,2.595,1.672,4.365,2.446c1.715,0.75,3.85,1.69,4.395,2.631c0.546,0.951,0.285,3.281,0.074,5.178
	c-0.21,1.877-0.404,3.65-0.059,4.948c0.35,1.297,1.404,2.732,2.544,4.281c1.116,1.516,2.503,3.403,2.503,4.496
	c0,1.091-1.387,2.979-2.527,4.526C84.16,56.045,83.105,57.479,82.756,58.778z M49.965,61.38c-1.444,0-2.688,0.509-3.688,1.513
	c-1.003,1.003-1.512,2.234-1.512,3.662c0,1.617,0.547,2.916,1.621,3.852c1.035,0.896,2.255,1.35,3.636,1.35
	c1.364,0,2.574-0.461,3.599-1.371c1.063-0.941,1.6-2.231,1.6-3.83c0-1.435-0.519-2.67-1.544-3.674
	C52.65,61.885,51.403,61.38,49.965,61.38z M52.162,68.742c-0.596,0.533-1.362,0.825-2.157,0.825s-1.566-0.289-2.177-0.82
	c-0.583-0.505-0.867-1.222-0.867-2.192c0-0.838,0.284-1.525,0.87-2.106c0.586-0.586,1.281-0.872,2.134-0.872
	c0.86,0,1.57,0.289,2.174,0.877c0.596,0.584,0.887,1.271,0.887,2.102C53.025,67.513,52.743,68.229,52.162,68.742z M50.186,28.147
	c-1.604,0-2.93,0.546-3.937,1.621c-0.982,1.055-1.484,2.5-1.484,4.292c0,1.13,0.085,3.003,0.251,5.572l0.876,13.133
	c0.179,1.838,0.479,3.19,0.916,4.146c0.568,1.228,1.624,1.88,3.048,1.88c1.396,0,2.457-0.658,3.064-1.902
	c0.485-0.992,0.79-2.326,0.932-4.081l1.174-13.467c0.13-1.26,0.194-2.53,0.194-3.775c0-2.233-0.294-3.926-0.904-5.173
	C53.818,29.367,52.695,28.147,50.186,28.147z M52.838,39.136L51.66,52.627c-0.114,1.461-0.354,2.568-0.709,3.298
	c-0.234,0.474-0.551,0.669-1.096,0.669c-0.564,0-0.85-0.164-1.056-0.609c-0.324-0.709-0.568-1.854-0.719-3.4l-0.875-13.096
	c-0.163-2.52-0.245-4.344-0.245-5.428c0-1.235,0.292-2.148,0.895-2.793c0.583-0.623,1.346-0.924,2.33-0.924
	c1.475,0,1.93,0.539,2.16,1.009c0.45,0.93,0.68,2.348,0.68,4.213C53.025,36.729,52.963,37.93,52.838,39.136z"/>
</svg>
